<svg id="Layer_2" data-name="Layer 2" xmlns="http://www.w3.org/2000/svg" viewBox="0 0 1254.74 481.6"><defs><style>.cls-1{fill:none;stroke:#efa303;stroke-miterlimit:10;stroke-width:8px;}</style></defs><title>carro</title><path class="cls-1" d="M675.62,27.61s-106-8-183-9-322,6-354,16c-26,20-102,97-110,126s-6.5,39.5-7.5,50.5c-6,12-8,16-8,22s-3,77,0,86c2,11-3,34,42,51s58,22,66,25c-1-12,1-82,40-112s104-48,148-18,72,57,69,139c75,2,534,5,534,5s1-81,31-116c30-30,94-74,176-24,20,18,62,57,46,135,20-3,68-11,82-36,6-19,20-62,4-109-14-23-36-56-60-73-25-7-216-44-268-43-41-24-173-96-187-100S703.12,29.11,675.62,27.61Z" transform="translate(-7.79 -14.51)"/><circle class="cls-1" cx="242.33" cy="369.6" r="108"/><circle class="cls-1" cx="1037.33" cy="362.6" r="108"/><line class="cls-1" x1="116.33" y1="382.6" x2="133.33" y2="378.6"/><path class="cls-1" d="M348.12,434.11" transform="translate(-7.79 -14.51)"/><path class="cls-1" d="M377.12,404.11" transform="translate(-7.79 -14.51)"/><path class="cls-1" d="M368.18,415.45" transform="translate(-7.79 -14.51)"/><line class="cls-1" x1="368.12" y1="388.13" x2="347.32" y2="397.57"/><line class="cls-1" x1="906.33" y1="394.6" x2="929.33" y2="381.6"/><line class="cls-1" x1="1141.32" y1="391.84" x2="1155.33" y2="389.6"/><path class="cls-1" d="M1213.54,206.71s-113.42-16.6-119.42-13.6c17,12,32,24,48,25,5,0,24,0,34,15,18,6,33,9,64,9" transform="translate(-7.79 -14.51)"/><path class="cls-1" d="M28.13,162.41l77,1.7s-24,26-26,27-49,22-56,20" transform="translate(-7.79 -14.51)"/><path class="cls-1" d="M145.12,49.11l-81,85h116s49-8,110-91Z" transform="translate(-7.79 -14.51)"/><path class="cls-1" d="M355.12,40.11l-42,65s3,32,28,39c26,1,228,9,228,9l-26-116Z" transform="translate(-7.79 -14.51)"/><path class="cls-1" d="M888.12,172.11s-114-114-207-129c-91-7-118-6-118-6l33,118Z" transform="translate(-7.79 -14.51)"/></svg>