<svg id="Layer_1" data-name="Layer 1" xmlns="http://www.w3.org/2000/svg" viewBox="0 0 985 601.6"><defs><style>.cls-1{fill:#98660d;}.cls-2{fill:none;stroke:#98660d;stroke-miterlimit:10;stroke-width:8px;}</style></defs><title>fabrica</title><path class="cls-1" d="M1003,395.6v234H34v-234h969m8-8H26v250h985v-250Z" transform="translate(-26 -36)"/><path class="cls-1" d="M667.75,447.48v68h-68v-68h68m8-8h-84v84h84v-84Z" transform="translate(-26 -36)"/><path class="cls-1" d="M442.5,447.48v68h-68v-68h68m8-8h-84v84h84v-84Z" transform="translate(-26 -36)"/><path class="cls-1" d="M217.25,447.48v68h-68v-68h68m8-8h-84v84h84v-84Z" transform="translate(-26 -36)"/><path class="cls-1" d="M893,447.48v68H825v-68h68m8-8H817v84h84v-84Z" transform="translate(-26 -36)"/><line class="cls-2" x1="804" y1="286" x2="946" y2="286"/><line class="cls-2" x1="808" y1="208" x2="936" y2="208"/><line class="cls-2" x1="814" y1="106" x2="924" y2="106"/><polyline class="cls-2" points="4 353 4 184 438.63 353 438.63 184 798.49 348.59 816.75 4 909.46 4 953 353"/></svg>