<svg id="Layer_2" data-name="Layer 2" xmlns="http://www.w3.org/2000/svg" viewBox="0 0 488 291"><defs><style>.cls-1{fill:#efa303;}</style></defs><title>lavar</title><path class="cls-1" d="M439.5,312H79.5a7.5,7.5,0,0,1-7.35-6l-56-276a7.5,7.5,0,0,1,14.7-3L85.63,297H433.39L489.16,27a7.5,7.5,0,1,1,14.68,3l-57,276A7.49,7.49,0,0,1,439.5,312Z" transform="translate(-16 -21)"/><path class="cls-1" d="M504.08,82.48" transform="translate(-16 -21)"/><path class="cls-1" d="M489.92,77.52" transform="translate(-16 -21)"/><path class="cls-1" d="M138,89.5A7.49,7.49,0,0,1,133.52,88C116,74.94,94.91,70.93,70.93,76.1A112.21,112.21,0,0,0,39,88.37,7.5,7.5,0,0,1,31,75.64,125.17,125.17,0,0,1,67.26,61.55c28.2-6.21,54.2-1.21,75.22,14.43A7.5,7.5,0,0,1,138,89.5Z" transform="translate(-16 -21)"/><path class="cls-1" d="M243,76a7.49,7.49,0,0,0-4.47,1.48C221,90.52,199.91,94.53,175.93,89.36a112.21,112.21,0,0,1-32-12.27A7.5,7.5,0,0,0,136,89.82a125.5,125.5,0,0,0,36.24,14.09c28.2,6.21,54.2,1.21,75.22-14.44A7.5,7.5,0,0,0,243,76Z" transform="translate(-16 -21)"/><path class="cls-1" d="M343,92.5A7.49,7.49,0,0,1,338.52,91C321,77.94,299.91,73.93,275.93,79.1a112.21,112.21,0,0,0-32,12.27A7.5,7.5,0,0,1,236,78.64a125.17,125.17,0,0,1,36.24-14.09c28.2-6.21,54.2-1.21,75.22,14.43A7.5,7.5,0,0,1,343,92.5Z" transform="translate(-16 -21)"/><path class="cls-1" d="M448,79a7.49,7.49,0,0,0-4.47,1.48C426,93.52,404.91,97.53,380.93,92.36a112.21,112.21,0,0,1-32-12.27A7.5,7.5,0,0,0,341,92.82a125.5,125.5,0,0,0,36.24,14.09c28.2,6.21,54.2,1.21,75.22-14.44A7.5,7.5,0,0,0,448,79Z" transform="translate(-16 -21)"/><path class="cls-1" d="M488.65,63.34q-3.16.51-6.39,1.21A125.17,125.17,0,0,0,446,78.64,7.5,7.5,0,0,0,454,91.37a112,112,0,0,1,29.62-11.73A42.09,42.09,0,0,1,488.65,63.34Z" transform="translate(-16 -21)"/></svg>