<svg xmlns="http://www.w3.org/2000/svg" viewBox="0 0 572 644"><defs><style>.cls-1,.cls-2,.cls-4,.cls-5{fill:none;stroke:#efa303;stroke-miterlimit:10;}.cls-1{stroke-width:11px;}.cls-2{stroke-width:8px;}.cls-3{fill:#efa303;}.cls-4{stroke-width:9px;}.cls-5{stroke-linecap:round;stroke-width:13px;}</style></defs><title>maqLavar</title><g id="Layer_1" data-name="Layer 1"><circle class="cls-1" cx="63" cy="71" r="22"/><circle class="cls-1" cx="273.5" cy="368.5" r="162"/><path class="cls-2" d="M367,409a10,10,0,0,1-10-10V385a10,10,0,0,1,10-10h50.1a116.05,116.05,0,1,0,1.17,34Z" transform="translate(-30 -28)"/><line class="cls-2" x1="387" y1="347" x2="434" y2="347"/><line class="cls-2" x1="388" y1="381" x2="435" y2="381"/><path class="cls-2" d="M187.38,386.56S221.5,407.5,242,387s44.5-10.5,56,1,30,6,41-5,18,9.33,18,9.33" transform="translate(-30 -28)"/><path class="cls-3" d="M195.52,398.33l-.07-3a1.52,1.52,0,0,0-2.56-1.06c-3.26,2.93-3.08,9.56-3.56,13.62h3a91.12,91.12,0,0,0,.54-12.14c-.06-2.14.09-3.75-1.23-5.42a1.52,1.52,0,0,0-2.36.31,13,13,0,0,0-1.51,7.5,1.52,1.52,0,0,0,2.8.76,13.19,13.19,0,0,0,1.92-5.91l-2.94.39c.95,3.6.58,7,0,10.63-.21,1.32,1.42,2.72,2.5,1.46A51.19,51.19,0,0,0,199,395.2l-2.59-1.52a45.39,45.39,0,0,0-3.68,14.44c-.14,1.57,2,1.91,2.79.75a21.56,21.56,0,0,0,3.55-13.08,1.52,1.52,0,0,0-2.8-.76,7.32,7.32,0,0,0-1.54,4.42c-.11,1.83,2.36,1.85,2.95.4l1.62-4.05-2.89-.8c-1.4,3.73-2.59,7.48-3.62,11.33l2.9.79a27.18,27.18,0,0,0,.2-7.32,1.52,1.52,0,0,0-2.8-.76,27.73,27.73,0,0,0-3.56,9.15l3,.4.71-6.23h-3a108.86,108.86,0,0,1-.93,12.75c-.17,1.26,1.44,2.79,2.51,1.46,2.56-3.22,2.38-7.22,4.34-10.72l-2.79-.76q-.35,5.52-.79,11c-.12,1.44,2.2,2.11,2.79.76s1.76-6,3.41-6.44c1.87-.46,1.08-3.35-.8-2.9-3.21.79-4,5.19-5.2,7.82l2.8.76q.45-5.52.79-11a1.51,1.51,0,0,0-2.8-.76c-1.77,3.17-1.59,7.25-3.88,10.12l2.51,1.45a113.47,113.47,0,0,0,1-13.54c0-2-2.79-1.87-3,0l-.71,6.23c-.19,1.67,2.61,2.05,2.94.4a26.16,26.16,0,0,1,3.26-8.44l-2.79-.75a23.08,23.08,0,0,1-.1,6.53c-.28,1.86,2.39,2.71,2.9.79,1-3.84,2.22-7.6,3.61-11.32.68-1.82-2.19-2.56-2.89-.8l-1.63,4.05,3,.4,1.13-2.9-2.79-.76a18.67,18.67,0,0,1-3.14,11.57l2.8.76A40.43,40.43,0,0,1,199,395.2c.76-1.73-1.69-3.27-2.59-1.52a47.61,47.61,0,0,1-6.47,9.69l2.51,1.46c.65-4.16,1.07-8.1,0-12.22-.46-1.73-2.79-1.21-2.95.4A7.73,7.73,0,0,1,188,397.4l2.79.76a10.09,10.09,0,0,1,1.11-6l-2.36.3c1.09,1.4.4,6.26.36,8-.08,2.5-.29,5-.55,7.46-.21,1.92,2.77,1.89,3,0,.33-2.79.42-9.46,2.68-11.5l-2.56-1.06.07,3c0,1.93,3,1.94,3,0Z" transform="translate(-30 -28)"/><path class="cls-3" d="M393.06,407.83a102.61,102.61,0,0,0-13.85,12.06,17.24,17.24,0,0,0-4.83,11.67,16.8,16.8,0,0,0,4.83,11.66c3.15,2.89,7.27,5,11.67,4.84s8.67-1.61,11.67-4.84a80.45,80.45,0,0,1,9.32-8.57l-3.34,2.58c.39-.31.79-.61,1.19-.91,3.57-2.68,6.35-5.38,7.58-9.86,1.09-3.95.6-9.21-1.66-12.71s-5.66-6.62-9.86-7.58c-4-.92-9.25-.95-12.72,1.66Z" transform="translate(-30 -28)"/><path class="cls-3" d="M382.56,421.72c1-.79,1.07-.78.23,0-.6.63-1.21,1.26-1.83,1.88-.83.87-1.66,1.73-2.48,2.6q-3.37,3.6-6.58,7.36c-4.6,5.39-8.95,11-13.13,16.73s-2.39,15.43,2.58,20c5.34,4.89,13.58,6.51,20,2.58a121.48,121.48,0,0,0,17.79-13.4c6.43-5.8,6.34-17.52,0-23.34-6.86-6.3-16.48-6.18-23.33,0-.9.81-1.81,1.6-2.71,2.4l-1.39,1.16q1.1-.79-.24.18c-2.18,1.62-4.47,3.08-6.78,4.5L387.27,467a161.12,161.12,0,0,1,10.32-12.77c4.46-5.05,10.38-9.77,13.46-15.83,3.92-7.68,2.28-18.24-5.91-22.57-7.53-4-18.4-2.3-22.58,5.92Z" transform="translate(-30 -28)"/><path class="cls-3" d="M380.17,436.41,350,459.58c-5.43,4.17-8.85,9.2-7.87,16.44.78,5.84,5.47,12.75,11.82,13.72s11.46.83,17-2.52l-20-25.91c-1.5,1.3-1.73,1.55-.69.73-1,.67-1.94,1.3-2.94,1.88-2,1.19-4.11,2.23-6.22,3.23a80.18,80.18,0,0,1-9.17,3.75,122.23,122.23,0,0,1-13.64,4c-1.72.39-3.47.69-5.2,1.05q-3.06.46-.84.19c-1.17.15-2.33.27-3.5.37-17.61,1.51-30-2.4-44.95-11.1q-5.62-3.28-11-6.92c-1.53-1-3-2.08-4.53-3.15-.91-.69-.85-.62.19.19-.83-.64-1.64-1.31-2.45-2a56.21,56.21,0,0,1-8.74-8.84c1.68,2.24-.59-1.13-.93-1.7s-2.66-6-1.61-3c-2-5.58-3.88-10.39-7.58-15-.43-.53-4.44-4.76-2.37-3q1.11,3.06.22.41c-.24-.84-.44-1.68-.61-2.54-1.7-8.21-3-16.36-9.82-22.17l-16,27.58c16.16,4.71,33.13,7,48.08-2.58,2.74-1.76,5.27-3.83,7.91-5.74,1.32-.95,2.66-1.88,4.06-2.71,0,0,4.5-2.17,2.35-1.33a37.8,37.8,0,0,1,5-1.46c4.24-1-1.83-.27,2.52-.25a24.1,24.1,0,0,1,2.55,0c1.21.07,1.07.05-.42-.05-1.11-.56-1.15-.54-.13.05a22.8,22.8,0,0,1,2.16,1.47c22.88,15.89,55.31,17,78.26.4L326,398.75c-1.29,15.17,2,33,18.19,38.38,12.12,4,26.06,5,38.74,4.72,8.63-.18,16.91-7.46,16.5-16.5-.39-8.79-7.25-16.69-16.5-16.5a126.6,126.6,0,0,1-12.92-.34A66.22,66.22,0,0,1,359.8,407a46.29,46.29,0,0,0-5.39-1.27q-6.59-2.23,5.49,6.28c-.3-1-.56-2.06-.76-3.11l-.33-1.79c.21,1.37.21,1,0-1,0-2.45,0-4.84.2-7.29,1-11.92-15-21.33-24.83-14.25a60.75,60.75,0,0,1-7.64,4.64c-2.66,1.38.86-.08-.86.36-1.44.37-2.83,1-4.27,1.34-1.2.32-2.42.57-3.63.84-4.51,1,3.07,0-1.54.21a64.26,64.26,0,0,1-8.21,0c-1.43-.1-3.19-.49-.81,0-1.46-.27-2.93-.56-4.37-.94s-2.85-.85-4.28-1.31c-3.24-1,1.69,1.16-1.54-.66-5.88-3.31-11.12-7.82-17.72-9.71-14.44-4.15-31.18,1.49-42.81,10.08-2.62,1.93-5.31,3.75-8,5.62-2.25,1.59.39.19-1.24.75-.74.27-3.85,1.06-1.59.69-6.62,1.08-11.1-.9-18.45-3-6.74-2-15.28,1.24-18.63,7.58-3.24,6.13-3.11,15.17,2.58,20,2.46,2.09-1.54-2,.41.36-.46-.56-.52-2.48-.64-1.07a8.87,8.87,0,0,0,.44,1.85c.63,3,.85,6.07,1.73,9a35.93,35.93,0,0,0,6.56,12.17c1,1.27,2.11,2.45,3.08,3.74-1.54-2-.84-.95-.19.93,5.45,15.68,16.39,26.82,29.63,36.34,12.64,9.1,26.75,17.07,41.7,21.64,16.14,4.92,33.24,4.7,49.68,1.52a126,126,0,0,0,23.73-7.25c9.81-4,19.08-8.28,27-15.53,13.82-12.72-4-35.58-20-25.91l1.16-.59h8.77l-1.49-.22,3.94,30.15,30.15-23.17c6.82-5.24,11.17-14.43,5.92-22.57-4.34-6.74-15.26-11.55-22.58-5.92Z" transform="translate(-30 -28)"/><path class="cls-3" d="M228.15,429.19A189.56,189.56,0,0,0,285.34,455a1.51,1.51,0,0,0,1.69-2.2,23.23,23.23,0,0,0-20.39-11.31,1.5,1.5,0,0,0,0,3,20.14,20.14,0,0,1,17.8,9.82l1.69-2.2a187.15,187.15,0,0,1-56.47-25.53c-1.61-1.07-3.11,1.52-1.51,2.59Z" transform="translate(-30 -28)"/><path class="cls-3" d="M244,436.51l7.5-3.48-9.08-15.54-14.35,10.77c-3.58,2.69-5.62,6.82-3.68,11.24A9,9,0,0,0,235,444.71l33.85-10.23-10.16-13.22a21.28,21.28,0,0,1-8,7.34c-7.74,4.28-4.36,17,4.55,16.77,7.27-.2,12-4.21,14.64-10.77,1.46-3.63-1-8.31-4.13-10.16-3.73-2.18-7.73-1.1-10.91,1.41A54.36,54.36,0,0,1,240,434l11.39,8.68A27.4,27.4,0,0,1,264,422.48l-13.22-5.37c2.16,6,7.07,10.18,13.71,10.25,6.18.06,11.05-3.54,15.2-7.75l-14.14-1.83c4.12,7.56,12.08,7.6,19.62,7.77a131.86,131.86,0,0,1,26.69,3.31c15.51,3.57,30.76,9.67,43.2,19.79l1.82-14.13A54.3,54.3,0,0,0,343,447.86l16.77,4.54c-.48.61-.26.27.65-1L344,444.43a60.09,60.09,0,0,1-6,15.31l16.45,2.15a19,19,0,0,1,.09-8.93,9.11,9.11,0,0,0-13.22-10.16A36.27,36.27,0,0,0,330.71,451h12.73l-.07,5.77L328.32,448a85.67,85.67,0,0,1-5.23,13.5l16.45,6.93a187.49,187.49,0,0,0,6.33-28.89c.66-4.81-1.16-9.66-6.29-11.07-4.51-1.24-10,1.52-11.07,6.29a120.79,120.79,0,0,1-5.78,18.74l17.68,2.39-.77-14.38c-.35-6.47-7.5-11.67-13.55-7.77l-5.92,3.81,13.22,5.38a49,49,0,0,1-1.61-9.32c-.28-4-2.6-7.58-6.61-8.68-3.51-1-8.6.55-10.16,4.14l-11,25.4,16.45,2.15a63.33,63.33,0,0,1-1.31-21c.87-9.14-12.6-11.9-16.77-4.54l-4.22,7.44,16.45,2.15a21.86,21.86,0,0,1,1-10.15c3.45-11.25-13.34-15.43-17.36-4.79a90.44,90.44,0,0,1-4.65,10.22l16.77,4.55a22.92,22.92,0,0,0-2.9-10.88c-3.17-5.87-12.37-5.84-15.55,0A48.18,48.18,0,0,1,282.3,442l15.37,6.37a80.12,80.12,0,0,1,2.49-23.94A9,9,0,0,0,295,413.84c-3.73-1.5-9.44-.49-11.24,3.68a78,78,0,0,1-10.62,18.14L288.46,442l.6-15.81c.3-8.05-9.92-11.54-15.37-6.37A66.46,66.46,0,0,0,263.1,433l14.14-1.82.2.23,1.23,4.54,0,.41c3.62-9.79-11.33-15.43-16.45-6.93l-14,23.22,16.45,2.15-.42-1.24v4.78c.48-3.36,3.73-6.08,3.73-10.05a10.94,10.94,0,0,0-7.47-10.56c-9.57-2.85-16.28,6.51-12.56,15,2.38,5.4,10.44,5.57,14.14,1.82a41.17,41.17,0,0,0,8.76-13.62c3-7.17-7.11-14.44-13.22-10.16a44.83,44.83,0,0,0-17.17,22.63c-3.06,8.82,8.91,14.69,15,8.76l8.65-8.37-15.36-6.37c-.73,9.41-5.29,26.22,7.45,29.41,10.11,2.54,20.46-9.58,25.29-16.91l-16.45-6.94-4.89,12.82c-2.79,7.32,6.94,14.3,13.22,10.17l6.86-4.52L267,461.2l-2.56,13.48c-1.61,8.48,8.31,15.48,15,8.76a89.65,89.65,0,0,0,15.22-20.21l-16.45-2.15.76,4.6c.56,3.42,4.31,6.07,7.48,6.45,3.89.46,6.68-1.29,9-4.3L306.83,453,290.39,446a103,103,0,0,0-5.8,25c-.93,8,10.3,11.51,15.36,6.36l13.75-14-15-8.76L293,468.74c-3.25,8.09,7,13.06,13.22,10.17a22.53,22.53,0,0,0,8.25-6.52l-15-4,1,6.39c.82,5.43,8.87,8.57,13.22,5.38l11.62-8.52h-9.09l3.74,2.27c4.48,2.73,9.45.62,12.31-3.23l3.69-5L319.1,461.2l-1.26,11.28c-.5,4.45,4.54,9.54,9,9,6.44-.78,11.56-2.82,16.35-7.28,8.49-7.92-4.26-20.63-12.73-12.73a6.81,6.81,0,0,1-3.62,2l9,9,1.26-11.28c.43-3.85-3.11-7.71-6.61-8.67-4.13-1.14-7.76.89-10.16,4.13l-3.69,5L329,458.4l-3.73-2.27c-2.53-1.54-6.6-1.83-9.09,0l-11.61,8.51L317.74,470l-1-6.38c-1-6.37-11.08-9.05-15-4a11,11,0,0,1-4.62,3.7l13.22,10.17L316,459.4c3.47-8.65-9.14-14.76-15-8.76l-13.75,14L302.59,471a85.32,85.32,0,0,1,5.15-20.19c1.56-4.14-1.39-9.08-5.21-10.62-4.49-1.81-8.44,0-11.24,3.68L280,458.75l16.45,2.15-.77-4.6c-1.28-7.78-12.94-8.53-16.45-2.15a72,72,0,0,1-12.4,16.56l15,8.76L284.39,466c1.35-7.13-6.15-14.82-13.22-10.16l-6.86,4.52,13.22,10.16,4.89-12.82c3.79-10-11.12-15-16.45-6.94-2.11,3.2-5.82,7.94-9.75,8.65H261l-1.26-.43,5.38,4.14c1.21,1.68.43-.24.55-1.76l.36-4.67.73-9.34c.63-8.08-10.1-11.46-15.37-6.36l-8.65,8.37,15.05,8.75a24.19,24.19,0,0,1,8.9-11.87l-13.22-10.17a18.35,18.35,0,0,1-4.14,5.69l14.14,1.82-.3-.67V452l.3-.6-3.23,3.23-.6.27h-4.79l.84.16-4-2.32.6.59-2.31-4,.26,1.29v-4.78c-.41,1.79-2.13,3.43-2.76,5.25a12.61,12.61,0,0,0-.23,8.44c2.43,7.25,12.32,9,16.45,2.15l14-23.23-16.45-6.94a11.4,11.4,0,0,0,3.23,12.34c4.42,3.85,10.92,3.36,14.14-1.82a47,47,0,0,1,7.77-9.46l-15.36-6.36-.6,15.81c-.28,7.31,10.4,12.53,15.36,6.36a94,94,0,0,0,13.44-21.78l-16.45-6.94a97.32,97.32,0,0,0-3.14,28.73A9.11,9.11,0,0,0,295,454.76a64.15,64.15,0,0,0,12.44-16.11H291.92a2.17,2.17,0,0,1,.45,1.8c.18,8.57,12.47,12.71,16.77,4.54a128.94,128.94,0,0,0,6.47-14.52l-17.36-4.79a42.32,42.32,0,0,0-1,19.72c1.28,7.86,12.89,8.43,16.45,2.15l4.22-7.44-16.77-4.54a78.82,78.82,0,0,0,1.95,25.83c1.66,7,13.31,9.39,16.45,2.15l11-25.4-16.77-4.55A75.7,75.7,0,0,0,316,447.71c1.44,5.43,8.34,8.52,13.22,5.38l5.93-3.82-13.54-7.77.77,14.38c.57,10.57,14,11.67,17.68,2.39a120.12,120.12,0,0,0,5.78-18.74l-17.36-4.78a186.58,186.58,0,0,1-6.33,28.89c-2.9,9.59,11.89,16.21,16.45,6.93a113.64,113.64,0,0,0,7.05-17.8c2.49-8.33-9.05-15.62-15-8.75-5.24,6-5.33,13.75.07,19.69,3.14,3.45,9.61,3.51,12.73,0a22.45,22.45,0,0,1,6.91-5.37l-13.22-10.16a39.84,39.84,0,0,0-.09,18.49c1.71,7.59,12.76,8.73,16.45,2.15a78.75,78.75,0,0,0,7.83-19.6c2.51-10.1-10.84-15.38-16.45-6.94a19.79,19.79,0,0,0-3.11,10.12c-.26,3.9,3,7.68,6.6,8.68,4.14,1.13,7.75-.9,10.17-4.14a29.8,29.8,0,0,1,7.46-6.88c4.37-2.9,6.59-10.25,1.82-14.13a121.55,121.55,0,0,0-42.27-22.08,156.21,156.21,0,0,0-25.25-5.17c-4.38-.56-8.79-.92-13.2-1.08-1.89-.06-3.8,0-5.68-.09-.63-.36-1.05-.34-1.24.06-1.92-.6-1.61-.23.94,1.13-2.77-5.08-10.16-5.86-14.13-1.82a15.31,15.31,0,0,0-2.31,2.22,1.52,1.52,0,0,1-.46.3c-1.7.83-.39,1.8,4,2.92-1.88-5.22-8-8.71-13.22-5.38-12.68,8.06-20.19,20.89-21.56,35.77-.51,5.56,6.21,10.58,11.39,8.68a81.3,81.3,0,0,0,22.77-12.81l-15-8.76,2.71-2.45,4.54,16.77a39.94,39.94,0,0,0,14.47-13.79c4.21-6.6-2.77-15.46-10.16-13.22L230.2,427.35l6.94,16.45L251.48,433c9.23-6.92,1.57-20.47-9.08-15.54L234.89,421c-4.41,2-5.51,8.4-3.23,12.31,2.65,4.53,7.89,5.28,12.32,3.23Z" transform="translate(-30 -28)"/></g><g id="Layer_2" data-name="Layer 2"><rect class="cls-4" x="4.5" y="4.5" width="563" height="635" rx="37" ry="37"/><line class="cls-2" x1="6.5" y1="125.5" x2="565.5" y2="124.5"/><line class="cls-5" x1="136.25" y1="53.25" x2="182.25" y2="53.25"/><line class="cls-5" x1="215.5" y1="53.25" x2="261.5" y2="53.25"/><line class="cls-5" x1="136.25" y1="83.5" x2="182.25" y2="83.5"/><line class="cls-5" x1="215.5" y1="83.5" x2="261.5" y2="83.5"/></g></svg>