<svg id="Layer_1" data-name="Layer 1" xmlns="http://www.w3.org/2000/svg" viewBox="0 0 471 109"><defs><style>.cls-1{fill:#efa303;}</style></defs><title>reticencias</title><path class="cls-1" d="M61.5,26.67A36.5,36.5,0,1,1,25,63.17a36.54,36.54,0,0,1,36.5-36.5m0-18A54.5,54.5,0,1,0,116,63.17,54.5,54.5,0,0,0,61.5,8.67Z" transform="translate(-7 -8.67)"/><path class="cls-1" d="M242.5,26.67A36.5,36.5,0,1,1,206,63.17a36.54,36.54,0,0,1,36.5-36.5m0-18A54.5,54.5,0,1,0,297,63.17a54.5,54.5,0,0,0-54.5-54.5Z" transform="translate(-7 -8.67)"/><path class="cls-1" d="M423.5,26.67A36.5,36.5,0,1,1,387,63.17a36.54,36.54,0,0,1,36.5-36.5m0-18A54.5,54.5,0,1,0,478,63.17a54.5,54.5,0,0,0-54.5-54.5Z" transform="translate(-7 -8.67)"/></svg>