<svg xmlns="http://www.w3.org/2000/svg" viewBox="0 0 870.36 598.71"><defs><style>.cls-1,.cls-2{fill:none;stroke:#98660d;stroke-miterlimit:10;stroke-width:8px;}.cls-1{stroke-linecap:round;}</style></defs><title>roupaDobrada</title><g id="Layer_2" data-name="Layer 2"><path class="cls-1" d="M546.06,39.18l-6.55,45.89,78.66,4.37-13.11,50.25s142,30.59,179.16,26.22V128.77s4.37-15.3-17.48-26.22c-19.66-15.3-72.1-52.44-133.28-76.48-6.27-.44-11.26-.71-15.23-.85-15.36-.53-15.36.85-15.36.85Z" transform="translate(-11.12 -15.61)"/><line class="cls-1" x1="609.23" y1="12.65" x2="609.23" y2="71.64"/><line class="cls-1" x1="609.23" y1="73.83" x2="767.63" y2="95.68"/><path class="cls-1" d="M546.06,39.18l-35-13.11s-19.66-10.92-56.8-4.37S98.15,89.44,71.93,111.29C54.45,122.21,6.38,159.35,54.45,218.35c43.7,28.4,266.56,177,266.56,177s19.67,21.85,67.74,15.29,439.17-83,450.09-91.77c10.93-4.37,45.89-21.84,28.41-45.88,4.37-8.74,21.85-32.77-2.19-56.81-28.4-19.66-80.84-50.25-80.84-50.25" transform="translate(-11.12 -15.61)"/><path class="cls-1" d="M384.38,366.92S734,279.53,862.88,275.16" transform="translate(-11.12 -15.61)"/><line class="cls-2" x1="610.32" y1="48.7" x2="651.83" y2="79.29"/><path class="cls-1" d="M571.19,88.34S208.49,193.22,191,206.33c-17.48,8.74-38.83,10.19-41.27,75" transform="translate(-11.12 -15.61)"/><path class="cls-1" d="M607.66,129.71S262,216.16,231.43,240.2c-10.92,6.55-33.71,2.5-39.8,69" transform="translate(-11.12 -15.61)"/><path class="cls-1" d="M862.88,216.16S410.6,294.82,380,314.48s-48.07,24-50.26,52.44c2.19,19.67-4.49,32.74,36,44.77" transform="translate(-11.12 -15.61)"/><circle class="cls-1" cx="238.97" cy="192" r="10.92"/><circle class="cls-1" cx="363.51" cy="153.67" r="10.92"/><circle class="cls-1" cx="491.24" cy="117.53" r="10.92"/></g><g id="Layer_3" data-name="Layer 3"><path class="cls-1" d="M55.55,219.44S3.11,241.29,38.07,313.39c39.33,28.41,249.08,174.8,275.3,177,21.85,13.11,39.33,24,85.21,17.48s423.88-91.77,441.36-100.51,50.25-24,19.66-43.69c13.11-15.3,24.65-39-3-54.47" transform="translate(-11.12 -15.61)"/><path class="cls-1" d="M347.23,410.62s-31.76,42.24-8.23,93.22" transform="translate(-11.12 -15.61)"/><path class="cls-1" d="M156,285.48s-16.3,13.71-18.49,35.56-5.82,46.57,4.74,64.8" transform="translate(-11.12 -15.61)"/><path class="cls-1" d="M195.67,311.87s-14.49,13.54-14.49,31,1.38,65,7.24,74" transform="translate(-11.12 -15.61)"/><path class="cls-1" d="M860.69,364.74S460.85,428.1,406.23,454.32" transform="translate(-11.12 -15.61)"/><path class="cls-1" d="M44.62,320S-7.82,341.8,27.14,413.9c39.33,28.4,249.08,174.79,275.3,177,21.85,13.11,39.33,24,85.22,17.48S811.53,516.59,829,507.85s50.25-24,19.67-43.7c13.1-15.29,24.65-39-3-54.46" transform="translate(-11.12 -15.61)"/><path class="cls-1" d="M339.59,505.67s-33.82,43.72-8.77,96.5" transform="translate(-11.12 -15.61)"/><path class="cls-1" d="M142.94,387.68a59.46,59.46,0,0,0-14.7,34.19c-1.73,21-4.63,44.76,3.77,62.29" transform="translate(-11.12 -15.61)"/><path class="cls-1" d="M184.46,413.9s-12,13.06-12,29.92,1.15,62.69,6,71.4" transform="translate(-11.12 -15.61)"/><path class="cls-1" d="M852,463.06s-399.84,63.36-454.46,89.58" transform="translate(-11.12 -15.61)"/></g></svg>