<svg id="Layer_2" data-name="Layer 2" xmlns="http://www.w3.org/2000/svg" viewBox="0 0 628.5 292.05"><defs><style>.cls-1,.cls-2,.cls-3{fill:none;}.cls-1,.cls-2,.cls-3,.cls-5{stroke:#efa303;stroke-miterlimit:10;}.cls-1{stroke-width:8px;}.cls-2{stroke-width:2px;}.cls-3{stroke-linecap:round;stroke-width:9px;}.cls-4,.cls-5{fill:#efa303;}</style></defs><title>roupa</title><path class="cls-1" d="M113.17,53.61H124a.1.1,0,0,1,.1.1c-.07,1.13-.43,11.23,9,16.89h0c5,1,11,3,16-4,2-3,1,0,3-6.94a.1.1,0,0,1,.07-.08,14.72,14.72,0,0,1,6.89,0,.08.08,0,0,1,.07.07c.24,1.16,4.38,20.12,17,25.94,13,6,22,6,31,5h0c7-4,16-6,20-20.92a.12.12,0,0,1,.1-.07H233a.09.09,0,0,1,.1.09c0,1.3.23,16,5,18.91,6,3,12,4,18-1,3-3,4,1,6-14.91a.11.11,0,0,1,.1-.09h5.85a.09.09,0,0,1,.09.06l28.93,59.85a.09.09,0,0,1,0,.13l-39.87,20.94a.08.08,0,0,0-.05.07l-19,150.85a.11.11,0,0,1-.11.09l-153.81-19a.09.09,0,0,1-.08-.11l19-151.85a.12.12,0,0,0,0-.09L69.2,104.68a.11.11,0,0,1,0-.15l43.9-50.89A.11.11,0,0,1,113.17,53.61Z" transform="translate(-17.62 -23.61)"/><path class="cls-2" d="M170.62,67.11l43,6s-5,7-13,7-15,0-21-4A31.93,31.93,0,0,1,170.62,67.11Z" transform="translate(-17.62 -23.61)"/><line class="cls-3" x1="127" y1="4.5" x2="121" y2="33.5"/><line class="cls-3" x1="232" y1="23.5" x2="230" y2="54.5"/><path class="cls-4" d="M173.55,70.08c11.84,3.31,25,3.51,37.22,5l-.76-2.8c-2.6,1.62-5,3.3-8,3.81s-6.15.21-9.12.15c-7.37-.18-11.6-2.59-17.26-7l-1.46,2.5c5.09,1.12,10.24,1.18,15.25,2.4,5.2,1.26,10.61.37,15.85,1.4L204.57,73c-1.89,1.71-8.33.81-10.86.69-3.9-.18-8.27-.35-11.79-2.2-1.71-.9-3.23,1.69-1.52,2.59,4.25,2.23,9.5,2.48,14.21,2.64,3.32.12,9.38.84,12.08-1.6a1.51,1.51,0,0,0-.66-2.51c-5.23-1-10.68-.15-15.85-1.39S180,70,174.93,68.84c-1.31-.28-2.74,1.52-1.46,2.51,5.7,4.41,10.16,7.51,17.58,7.8,3.7.14,7.65.45,11.33-.09,3.51-.51,6.18-2.38,9.15-4.23a1.51,1.51,0,0,0-.76-2.79c-11.9-1.42-24.87-1.63-36.42-4.85a1.5,1.5,0,0,0-.8,2.89Z" transform="translate(-17.62 -23.61)"/><path class="cls-4" d="M108.75,61.79l-.33.58,11.78,9.08,4.1-5.89-13-7.57c-9.95,15.67-26.7,27.08-40.64,39-3.41,2.9-2.73,9.89,1.52,11.77a73.34,73.34,0,0,1,28.21,21.9c5.1,6.46,13.78-.79,12.54-7.29q-3.35-17.48-7.78-34.71C103.5,82,95,81.72,91.5,86.84L83.8,98.12c-4.29,6.29,4.08,14.07,10.26,10.26a174.65,174.65,0,0,0,26-19.59l-12.8-5.31a18.61,18.61,0,0,1-1.15,5.45l14.46,4,6.52-20.76L113.39,74c6.86,9.58,17.85,15.65,29.83,15.11,12.53-.58,22.63-11,17-23.53-3.46-7.76-16.3-2.25-13.71,5.77,3,9.26,7.71,18.42,14.7,25.31,7.95,7.84,18.4,9.2,29.07,9.93,9.38.64,20.36,1.33,29.4-1.77,9.89-3.39,14.23-11.25,15.7-21.16l-14.73-2c-.86,7.86.15,15.59,6.6,20.89,5.28,4.34,12.4,5.89,19.12,5.91,14.17,0,29.55-9.29,28.4-25.15-.7-9.52-15.28-9.75-15,0,.5,18.2,11.59,32.61,18.55,48.71L281,121.71a197.17,197.17,0,0,1-36.41,16.49c-9.11,3-5.21,17.53,4,14.46a216.35,216.35,0,0,0,40-18c3.81-2.2,4.3-6.54,2.69-10.26-5.78-13.36-16.08-26.08-16.5-41.14h-15c.55,7.56-7.08,10.18-13.4,10.15-2.86,0-6.41-.27-8.87-1.93-3.28-2.2-2.23-6.44-1.85-9.87.9-8.32-13.5-10.36-14.74-2-1,6.69-2.1,10.57-9.28,11.71-6.93,1.09-14.39.68-21.35.21s-14-.84-19-6.06c-4.85-5-8.17-11.57-10.3-18.16L147.3,73.1c-.71-1.6.16-.39-.6-.09a13.44,13.44,0,0,1-2.48.93,16,16,0,0,1-6.5-.33,19.1,19.1,0,0,1-11.38-7.23c-3.72-5.2-11.67-4.69-13.71,1.79l-6.51,20.76c-2.92,9.28,11.34,13,14.46,4a33.29,33.29,0,0,0,1.69-9.44c.29-6.82-8.24-9.45-12.81-5.3a153.83,153.83,0,0,1-23,17.25l10.26,10.26,7.7-11.28L90.74,92.62q4.44,17.22,7.77,34.71l12.54-7.3A82.6,82.6,0,0,0,79.8,95.78l1.52,11.78c15.08-12.86,32.21-25,43-42,5.24-8.25-7.51-15.4-13-7.57l-4.11,5.89c-5,7.2,5.8,14.76,11.78,9.09a14,14,0,0,0,4.2-7.2c2.32-9.37-12.14-13.37-14.47-4Z" transform="translate(-17.62 -23.61)"/><path class="cls-4" d="M266.8,114.24l-9.25,5.28c-8.39,4.79-.9,17.61,7.57,13l4-2.18c7.56-4.16,2.37-15.75-5.78-13.71A174.77,174.77,0,0,0,245,122.25l8.47,11q6.11-9.65,12.84-18.84l-13.71-1.8.66,4.16c.95,5.94,8.78,6.72,12.54,3.31a16.56,16.56,0,0,0,5.38-9.66l-14.73-2,.77,7.63c.66,6.61,10.42,11.19,14,3.79s3.26-20-6.69-22c-4.79-1-8.22,1.7-11.74,4.54-3.72,3-7.4,6.06-11.1,9.09l12.54,3.31-.75-4.31c-1.08-6.21-8.6-6.37-12.54-3.31a35,35,0,0,0-6.22,6.24c-2.49,3.23-3.09,7.45,0,10.61,2.58,2.64,8.1,3.17,10.61,0L251,117c4.9-6.2-1.25-16.63-9.09-11.78a142.27,142.27,0,0,1-19.35,10l11,8.47a30.94,30.94,0,0,1,4.62-8.55c5.12-7-5.92-15-11.78-9.09a63,63,0,0,1-7.2,6.36l10.26,10.26a60.23,60.23,0,0,0,5.81-11.43c2.58-6.52-5.78-11.23-11-8.47l-5.95,3.13,10.26,10.27a24,24,0,0,0,3-9.54c1-7.16-8.48-8.89-12.8-5.3a60.35,60.35,0,0,0-8.13,8.17c-6.09,7.39,3.28,17.1,10.61,10.6,5.09-4.52,3.09-13.17-3.12-15.58-7.16-2.78-14.12,3.44-19.45,7.44l9.09,11.78a27.63,27.63,0,0,0,4.52-6.62c2.21-4.68-.31-11.77-6.47-11.28A23.91,23.91,0,0,0,193.31,110c-8,5.7-1.24,16.67,7.57,13a18.12,18.12,0,0,0,8.8-8.2c2.93-5.33-.87-10.72-6.48-11.28a39.62,39.62,0,0,0-21.34,4.09c-7,3.33-3.26,13.94,3.78,14a24.51,24.51,0,0,0,16.78-6.46c4.45-3.89,1.73-11-3.31-12.54a28.37,28.37,0,0,0-25,3.79c-4.73,3.37-5.12,12.39,1.79,13.71a14.76,14.76,0,0,0,12.91-3.37c3.93-3.25,6-8.54,2.54-13-5.78-7.43-19.88-5.32-27.51-2.57-5,1.78-7.84,8.51-3.31,12.54,6.62,5.89,17.67.16,15.24-9-2.53-9.47-15.27-8.67-22.64-7.56-6.94,1-6.56,10.5-1.79,13.71,6.11,4.13,14.55-1.47,13.58-8.67-1.06-7.89-9.78-10.26-16.51-10.67-8.46-.51-10.17,12.76-2,14.73a13.92,13.92,0,0,0,15.69-6.38c1.59-2.54,1.34-7.1-1.18-9.09-6.49-5.13-15.25-6.57-22.31-1.44-5.78,4.2-4.14,13.86,3.79,14a9,9,0,0,0,8.06-13.48c-3-5.31-10.09-6.87-15.73-6.79-7.16.1-10.56,10.42-3.78,14a14.37,14.37,0,0,0,14.72-.23c4.7-2.88,5-10.15,0-13-8.88-5-18.65-5-27.78-.7-6.52,3.07-3.5,11.55,1.8,13.71,3.81,1.55,7.33,1.47,11.32.92,3.05-.42,5.7-4.28,5.51-7.23C136,82,125.47,76.38,118,80.69c-8.62,5-5,17.41,4.6,17.75v-15a13.31,13.31,0,0,0-13.39,10.32l11-4.49c-6.11-2.88-12.78-.6-14.75,6.17-1,3.37.7,6.6,3.44,8.47a17.27,17.27,0,0,0,8.57,2.75c8.1.76,9.24-10.15,3.79-14-6.11-4.28-15,.2-15.65,7.51-.68,7.88,7.08,12.65,14.19,10.89,9.41-2.33,5.41-16.46-4-14.46a13.81,13.81,0,0,0-9.59,7.71c-2,4.17-1.07,7.65-.15,11.9v-4c-.36,2.23-.93,4.24-.46,6.52s1.82,3.3,2.74,5.21l-1-3.79c.07,2.11-1.27,4.42-1.21,6.73.17,6.76,8,9.55,12.8,5.3A40.84,40.84,0,0,0,130,115.87c2.72-6.94-7.81-12.83-12.53-7.3L112.82,114c-6.2,7.26,3.63,17.48,10.6,10.61a39.17,39.17,0,0,0,11.79-29.07c-.17-6.84-7.92-9.46-12.8-5.31a40.74,40.74,0,0,0-12.4,19c-2.15,6.76,5.49,11,11,8.47a43.1,43.1,0,0,0,16.9-14.5c4.23-5.91-2.73-12-8.47-11-12.63,2.11-12.05,18.8-2.18,24.1s22.38-.75,29.52-7.74a7.65,7.65,0,0,0,0-10.61c-9.52-10.34-24.67,1-29,10.82-1.48,3.32-1.35,8.55,2.69,10.26,12.08,5.1,26.25,3,35-7.33,3.74-4.39,2.3-10.65-3.31-12.54-9.41-3.16-23.26,6-16.19,16.38,6.06,8.88,20.64,6.19,28.41,1.56,4.59-2.73,5.17-10.37,0-13-10.27-5.13-24.26,5.21-17.57,16.55a13.3,13.3,0,0,0,13.93,6.2c6-1.33,10.45-7.8,7.91-13.82-2.75-6.52-11.56-6.86-15.44-1.26-3.66,5.27-1.39,12.13,3.74,15.49,9.31,6.09,24.4,4.89,33.54-.8,4.54-2.82,5.19-10.28,0-13-5.9-3-11.81-1.51-15.94,3.64-3.73,4.63-5.25,11.12-.51,15.74,8.08,7.87,23.83,2.37,31.65-3.07,6.55-4.55,2.81-16.54-5.78-13.7A25.52,25.52,0,0,0,194.62,129c-1.75,3.49-1.08,8.28,2.7,10.26,11,5.79,25.32-2,34.68-8.12l-10.26-10.26c-2.29,4.15-4,9-2.34,13.65,2,5.66,7.62,7.7,13.16,8.15,8.85.72,22.91-3.87,22.17-14.88a7.6,7.6,0,0,0-11.28-6.48c-7.64,3.93-20.12,17.27-9.37,24.77,9.37,6.53,20.92-2.6,24.14-11.4,1.79-4.91-2.78-9.17-7.23-9.5a31.46,31.46,0,0,0-17.5,4l11.28,6.47c.15-5.55,1.11-12.37-4.85-15.29-6.38-3.13-12.17,1.6-13.77,7.73-1.87,7.18,7.2,12.66,12.54,7.29a23.46,23.46,0,0,0,4-5.26l-14-3.78-.22,10.8c-.2,9.66,14.8,9.65,15,0l.22-10.8c.16-7.38-10.4-10.3-14-3.79a4.79,4.79,0,0,1-1.63,2.23L240.61,132l-2.48,2-5.78-.76-1.44-1.39-1-3.78c.12,2.49,0,5-.12,7.51-.16,5.88,6.44,9.1,11.29,6.48a16.86,16.86,0,0,1,9.93-1.91l-7.23-9.49c-.38,1-1.11,1.07-1.62,1.88l-.74.35q-2.93.33,2.54,2.06l1,3.79c-.12,1.59,1.61-1.37,2.13-1.88a15.81,15.81,0,0,1,3.93-2.63l-11.29-6.47c-.12-1.75,1.19-1.55-1.26-.68a11.44,11.44,0,0,1-3.52.67c-.25,0-2.68-.32-2.77-.22q1.08,4.92,1.66,2.6a5.42,5.42,0,0,1,.85-1.72c3.45-6.28-3.73-14.53-10.26-10.26a64.51,64.51,0,0,1-10,5.51c-2.11.89-7.45,3.7-9.53,2.61l2.69,10.26c1.45-2.89,3.18-4.85,6.32-5.89L208.12,117a25.08,25.08,0,0,1-8.5,4.06c-1.47.35-3,.24-4.47.57-3.32.75-.87-2.44.52,2.33v4c.7-1.08.62-1.41-.23-1l-3.78-1,1.26.64v-13a17.45,17.45,0,0,1-10.25,2.55,27.44,27.44,0,0,1-5-.52,15.48,15.48,0,0,1-2.31-.63c-.73-.57-.49-.33.73.72v4l-.8,1-5.3,2.19,1.15-.1-5.3-2.2.69.68-2.2-5.3q3.32-6.63,5.82-2,.48,4.31-3.3,3.15v-13a13.85,13.85,0,0,1-5.47,2.1,22.28,22.28,0,0,1-2.71,0q-2.55-.81.25,1.58v4c-.33,1.06-2.06,1.34-.7,1.8l-3.31-12.54c-4,4.71-10.75,7.56-16.84,5l2.69,10.26a14.71,14.71,0,0,1,3.59-5.38,19.28,19.28,0,0,0,1.86-1.34c1.14-1.32,1.41.44,0-1.06V98a18.73,18.73,0,0,1-6.66,4.32c-1.31.49-2.87.46-4.11.94l-1.12-.14q-1.52-1.34-.85,3.59L125,95.7a28.43,28.43,0,0,1-11.52,9.12l11,8.47A26.35,26.35,0,0,1,133,100.87l-12.81-5.3A24.12,24.12,0,0,1,112.82,114l10.6,10.61,4.67-5.47-12.53-7.29a25.21,25.21,0,0,1-7.24,9.73l12.81,5.3c-.06-2.19,1.31-4.37,1.21-6.73-.15-3.33-2-5.35-4-7.72l2.19,5.3c-.27-2,.5-3.93-.07-6.11-.1-.4-.72-1.79-.57-1.53s-1.22,1.21,0,1l-4-14.46,4.4,2.57v4l-3.56,2.9-3.78-1,.82.57,3.78-14c.47.19.14,0-1-.7l3.45,8.47-1.58,2.41-3.78,1,1,0-3.78-1,.88.42c4.17,2,9.84.58,11-4.49a1.48,1.48,0,0,0-1.07.7c9.67.17,9.63-14.65,0-15l-.91,0,3.79,1L127,85.7l1,3.79,0-1-1,3.78-1.35,1.6h-4c1.08.19,1.43.12,2,.83l-2.19-5.3.06,1,5.5-7.24c-1.1.16-2.39-.53-3.35-.92L125.5,96a13.67,13.67,0,0,1,12.63.71v-13a.4.4,0,0,0,.42.24l-3.79,14a7.93,7.93,0,0,1,2.48.12q2.58,1.05.53-.3L137,92l1-1.56,5.31-2.2h-.93l3.78,14c1.07-.77,2.76-2,4.14-.9l-1.18-9.09a2.29,2.29,0,0,1,1.25-.51l-2,14.73a6.36,6.36,0,0,1,2.29.37q2.17.93-.38-1.71v-4l3.47-3.59,5.77.75-.65-.44-1.8,13.71a19.21,19.21,0,0,1,4.73-.14c2.82.27,1.38,1,.22-1l-1-3.78,0,.9,1-3.79,1.4-1.44,3.79-1-.79.06,5.3,2.19-.59-.52-3.31,12.54a26.45,26.45,0,0,1,7.54-1.75,23.36,23.36,0,0,1,3.55,0,6.56,6.56,0,0,1,1.65.22q3,.84-2.12-2.82l1.93-7.29c-1.08,1.36-1.4,1.64-3,1.91h4l-1.43-.27,1.79,13.71c4.23-3,8.44-3.84,13.42-2.27l-3.31-12.54a8.51,8.51,0,0,1-6.17,2.07l3.79,14a25.24,25.24,0,0,1,13.77-2l-6.48-11.29c-.93,1.71-1.64,2.07-3.41,2.82l7.57,13a9.26,9.26,0,0,1,4.89-2.12l-6.48-11.29a14,14,0,0,1-2.18,3.59c-5.26,6,1.88,17.19,9.09,11.78,1.62-1.22,6.83-6.14,9-6l-3.79-1-2-2.39v-4l1.15-2,10.61,10.6a59.71,59.71,0,0,1,8.13-8.16l-12.81-5.31a4.42,4.42,0,0,1-1,2c-3.89,6.67,3.76,13.68,10.27,10.26l5.95-3.14-11-8.47a41.28,41.28,0,0,1-4.3,7.85c-4,6,4.19,14.73,10.27,10.26a85.8,85.8,0,0,0,10.23-8.7l-11.78-9.09a44.11,44.11,0,0,0-6.13,12.13c-2.33,6.93,5.58,10.78,11,8.47a140.58,140.58,0,0,0,19.35-10l-9.09-11.78-5.63,7.11,10.61,10.61a34,34,0,0,1,6.22-6.24L239,114.52l.75,4.31c1.06,6.11,8.64,6.5,12.54,3.31l6.24-5.11c.72-.6,4.32-4.33,5-4.26l-5.31-2.2a1.65,1.65,0,0,1,0,1.73l14,3.78-.77-7.63c-.37-3.71-2.56-6.9-6.5-7.37-3.37-.4-7.61,1.65-8.23,5.37-.31,1.87-.12,1.76-1.53,3l12.54,3.31-.67-4.15c-1.13-7.1-10.36-6.36-13.7-1.8q-6.75,9.21-12.84,18.85c-3.32,5.25,2.27,13.32,8.47,11a173.25,173.25,0,0,1,18.28-5.66l-5.78-13.71-4,2.18,7.57,13,9.25-5.28c8.39-4.79.84-17.75-7.57-13Z" transform="translate(-17.62 -23.61)"/><path class="cls-4" d="M108.05,128.54a159,159,0,0,0-11.12,26.33c-3,9.23,11.47,13.13,14.47,4A130.74,130.74,0,0,1,130.54,122l-14-3.78-1.9,19c-.64,6.35,8.73,10.07,12.8,5.31a85.43,85.43,0,0,0,16-28l-14.46-4-3.86,23.29c-1.17,7.07,6.78,12.9,12.53,7.3a27.08,27.08,0,0,0,8.18-18.37c.52-8.54-12.56-10-14.73-2a109.55,109.55,0,0,0-3.51,21.89c-.36,6.09,8.77,10.44,12.81,5.3A185.71,185.71,0,0,0,154.25,128l-14-3.78L138.79,146c-.45,6.56,8.47,9.79,12.8,5.3,6.16-6.38,8.44-14.5,10-23,1.74-9.49-11.19-13.13-14.47-4a39.53,39.53,0,0,0-2.26,14.13c.11,6.73,8,9.59,12.8,5.31A76.45,76.45,0,0,0,168.9,131l-13.71-1.8a58.49,58.49,0,0,1,2.08,10.89c.48,5.69,8.35,10.89,12.8,5.3a42.66,42.66,0,0,0,8.72-17.47l-14.73-2-.77,20.78c-.23,6.08,8.68,10.47,12.8,5.31a125.84,125.84,0,0,0,15.84-25.06l-14-3.79,1.39,22.49c.49,7.88,9.53,9.62,14,3.78a57.42,57.42,0,0,0,9.13-18l-14.73-2-.06,24.21c0,7.86,9.9,9.65,14,3.79L214.51,139l-14-3.79-2.34,26.44c-.64,7.21,8.3,8.91,12.8,5.31,7.81-6.25,12.67-15,17.15-23.81l-14-3.79a83.12,83.12,0,0,1-2.8,20.34c-2.23,8.46,9,12.71,13.71,5.78l13.82-20.51-13.71-1.79,1.61,11.24c.92,6.47,10.9,7.13,13.71,1.79a38.39,38.39,0,0,0,4.14-13.75h-15l-2.06,20.05c-.76,7.45,10.69,10.14,14,3.78a54.83,54.83,0,0,0,5.77-17.39c.59-4-1-8-5.24-9.22-3.62-1-8.52,1.26-9.23,5.24a149.59,149.59,0,0,0-2.36,22.65c-.18,7.39,10.4,10.26,14,3.78a157.6,157.6,0,0,0,10.18-22.56l-14.73-2-.19,10.8c-.13,8.23,13.27,10.5,14.74,2l1.25-7.26-14.73-2c-2.78,21.16-5.56,43.31-12.27,63.63l14.74,2,.15-4.29c.36-9.65-14.64-9.64-15,0l-.15,4.29c-.32,8.75,12.16,9.78,14.73,2,7.12-21.59,9.84-45.13,12.8-67.61,1.09-8.31-13.3-10.31-14.73-2L240,155.56l14.73,2,.19-10.8c.14-8.86-12-9.65-14.74-2a132.39,132.39,0,0,1-8.66,19l14,3.79a123.11,123.11,0,0,1,1.83-18.67l-14.47-4a43.23,43.23,0,0,1-4.25,13.8l14,3.79,2.06-20.05c.41-4-3.74-7.5-7.5-7.5-4.47,0-7,3.46-7.5,7.5a18,18,0,0,1-2.09,6.18l13.7,1.79-1.6-11.24c-1-7-10.52-6.53-13.71-1.79l-13.82,20.51,13.71,5.78a100.9,100.9,0,0,0,3.33-24.33c.11-7.22-10.53-10.5-14-3.78-4,7.73-7.91,15.26-14.8,20.77l12.8,5.3,2.34-26.44c.71-8.06-10.15-9.29-14-3.78L188.7,149.85l14,3.78.06-24.21c0-8.59-12.23-10-14.73-2a46.15,46.15,0,0,1-7.62,14.4l14,3.79L193,123.13c-.42-6.76-10.56-11-14-3.78a110.87,110.87,0,0,1-13.49,22l12.8,5.3.77-20.78c.31-8.38-12.86-10.3-14.73-2a26.14,26.14,0,0,1-4.87,10.86l12.81,5.3a78.92,78.92,0,0,0-2.62-14.87c-1.86-6.62-10.08-6.88-13.7-1.8a58.49,58.49,0,0,1-8.89,9.71l12.81,5.3a27.51,27.51,0,0,1,1.73-10.14l-14.47-4c-1,5.73-1.95,12-6.14,16.39l12.8,5.31,1.49-21.72c.52-7.66-10.36-9.89-14-3.79a157.28,157.28,0,0,1-11.45,16.91l12.8,5.31a88.88,88.88,0,0,1,3-17.9l-14.73-2a11.21,11.21,0,0,1-3.78,7.76l12.53,7.3,3.86-23.3c1.57-9.43-11.26-13.25-14.46-4a65.85,65.85,0,0,1-12.18,21.33l12.81,5.3,1.9-19c.33-3.26-2.57-6.39-5.51-7.23-3.41-1-6.49.76-8.47,3.44a143.41,143.41,0,0,0-20.66,40.45l14.47,4a136.05,136.05,0,0,1,9.6-22.75c4.53-8.52-8.41-16.1-13-7.57Z" transform="translate(-17.62 -23.61)"/><path class="cls-4" d="M224.18,180.34A184.7,184.7,0,0,0,212.56,209c-2.46,7.93,10.35,13.71,13.71,5.78A128.08,128.08,0,0,0,236.65,168c.27-9.81-14.07-9.42-15,0l-4,40.16c-.78,7.91,10.28,9.49,14,3.78a56.81,56.81,0,0,0,8.89-27.15h-15l.36,25.45c.13,9,11.64,9.43,14.73,2A63.23,63.23,0,0,0,242.92,171c-1.76-6.32-10.34-7.23-13.71-1.79a66.54,66.54,0,0,0-8.68,21.75l14.47,4a81.48,81.48,0,0,0,.81-22.43c-1.07-9.66-13.86-9.61-15,0l-3.34,28.15c-1,8.51,12.62,10,14.73,2a71.83,71.83,0,0,0-.51-38.75c-1.64-5.57-11.05-8.07-13.71-1.79a103,103,0,0,0-7.91,31.07c-.8,8.41,12.9,10.18,14.73,2a83.15,83.15,0,0,0,.67-32.85c-1.33-7.61-12.56-6.66-14.47,0a116.32,116.32,0,0,0-4.47,30.42c-.13,8.25,13.11,10.46,14.73,2a124.59,124.59,0,0,0,2-32.59c-.6-8.16-12.37-10.51-14.74-2L200.7,188.4l14.73,2,.34-17.17a7.61,7.61,0,0,0-7.5-7.5c-4.46,0-7,3.46-7.5,7.5L197.39,201c-1,8.35,13.1,10.25,14.73,2,2.37-12,4.51-24.6-.09-36.33-2.77-7-11.72-7.13-14.47,0l-10.76,28,14.73,2a151.27,151.27,0,0,0-1.38-30.3c-1.11-8-12.35-6.26-14.46,0a104.18,104.18,0,0,0-4.57,20.95h15l.53-18.58c.24-8.26-13.31-10.47-14.73-2-1.24,7.43-2.17,14.89-2.74,22.39-.58,7.79,10.29,9.7,14,3.79a84.61,84.61,0,0,0,10.78-26.13l-14.47-4L186.11,180c-1.83,9.37,11.93,13.43,14.46,4a71.87,71.87,0,0,0,1.27-31.19c-1.2-7-10.38-6.48-13.71-1.79a77.13,77.13,0,0,0-11.38,23.94l14.73,2-.3-23.89c-.11-8.63-12.1-10-14.73-2a125.72,125.72,0,0,0-5,20.8c-1.41,9.28,12,13.57,14.46,4a85.39,85.39,0,0,0,2.77-20.31c.13-8.35-12.79-10.33-14.73-2l-4.05,17.35,14.47,4a67.27,67.27,0,0,0,1.55-21.63c-.33-3.36-2.11-6.26-5.51-7.23-2.91-.84-7.19.46-8.47,3.44a246.31,246.31,0,0,1-11.82,23.95l14,3.78.44-29.78c.13-8.72-12.11-9.83-14.73-2a210.29,210.29,0,0,0-6.77,25.4l14.46,4a64.25,64.25,0,0,0-.54-25.69c-1.36-6-10.92-7.6-13.7-1.79a115.52,115.52,0,0,0-7.16,18.75l14.73,2,1-16.12c.51-8.3-13.56-10.42-14.73-2A136.1,136.1,0,0,1,143,169.29l14.47,4a80,80,0,0,0,2.05-22.55c-.4-7.38-9.93-10.28-14-3.79l-5.11,8.21,13.7,5.78a104.68,104.68,0,0,0,5.24-19l-14.73-2a102.18,102.18,0,0,1-.6,22.18c-1.35,9.28,11.79,13.56,14.46,4a131.34,131.34,0,0,0,4.69-29.61c.43-9.75-14.16-9.48-15,0a36.22,36.22,0,0,1-5.38,15.75h12.95c-2.37-3.7-4.64-8.82-8.54-11.13-4.73-2.8-10.38-.86-13.22,3.64-5.18,8.2-6.52,20-7.54,29.47-.77,7.21,11.08,10.52,14,3.79a107.72,107.72,0,0,0,8.27-31.13h-15A63.7,63.7,0,0,1,132.35,169h14.46a110.07,110.07,0,0,0-5.1-15.32c-2.57-6.2-9.66-7.24-13.7-1.79A89.38,89.38,0,0,0,115.07,177l14.47,4,6.4-22.42H121.47a49.15,49.15,0,0,1-.26,16.85l14.73,2a112.45,112.45,0,0,0-1-31.3c-1.33-8.07-12.15-6.11-14.46,0L113.69,164l14.74,2-1-22.08c-.45-9.65-14.52-9.66-15,0l-.83,16.57h15a45.38,45.38,0,0,0-3.47-18.95c-2.58-6.12-12.68-8.06-14.46,0A75.78,75.78,0,0,1,100,163.66c-4.87,8.36,8.08,15.91,12.95,7.57a89.12,89.12,0,0,0,10.12-25.72H108.65a35,35,0,0,1,2.93,15c-.25,9.69,14.52,9.6,15,0l.83-16.57h-15l1,22.08c.4,8.74,11.76,9.81,14.73,2l6.78-17.88H120.48a98.82,98.82,0,0,1,.46,27.32c-1,8.34,13.18,10.28,14.74,2a70.58,70.58,0,0,0,.26-24.81c-1.24-7.65-12.58-6.62-14.47,0L115.07,177c-2.67,9.35,11.42,13.08,14.47,4A76.72,76.72,0,0,1,141,159.45l-13.71-1.79a113.1,113.1,0,0,1,5.1,15.31c1.8,7.1,12.71,7.2,14.46,0a75.87,75.87,0,0,0,1.89-26c-1-9.66-13.92-9.61-15,0a83.62,83.62,0,0,1-6.22,23.56l14,3.78a87.75,87.75,0,0,1,2.16-11.91q.66-2.56,1.44-5.09c.36-1.13.73-2.24,1.13-3.35q1-2.07-.62-.06l-3.79,1,1.11-.09-3.79-1c-.94-1.2-1.06-1.28-.35-.25l1.35,2.11,2.71,4.22a7.59,7.59,0,0,0,12.95,0,53,53,0,0,0,7.43-23.32h-15A113,113,0,0,1,144,162.16l14.46,4A119.41,119.41,0,0,0,159.63,140c-.57-7.85-13.15-10.86-14.73-2a105.62,105.62,0,0,1-5.24,18.95c-3.11,8.19,9.38,12.74,13.71,5.78l5.11-8.21-14-3.78A64.69,64.69,0,0,1,143,169.29c-2.18,9.39,11.77,13.3,14.47,4a139.05,139.05,0,0,0,4.13-19.37l-14.74-2-1,16.12c-.53,8.59,12.48,10,14.73,2a94.05,94.05,0,0,1,5.65-15.17l-13.71-1.79a45.14,45.14,0,0,1,.54,17.71c-1.63,9.38,12.54,13.53,14.46,4a210.45,210.45,0,0,1,6.77-25.41l-14.73-2-.44,29.78c-.11,7.41,10.33,10.25,14,3.79A246.31,246.31,0,0,0,184.91,157l-14-3.78a54,54,0,0,1-1,17.65c-2.16,9.39,12.27,13.4,14.47,4l4-17.34-14.73-2a68.22,68.22,0,0,1-2.23,16.33l14.46,4a126.86,126.86,0,0,1,5-20.79l-14.73-2,.3,23.89c.11,8.43,12.41,10.22,14.73,2a65.27,65.27,0,0,1,9.87-20.36l-13.71-1.79A53.83,53.83,0,0,1,186.11,180l14.46,4,3.37-17.22c1.83-9.38-12.32-13.47-14.47-4a71.82,71.82,0,0,1-9.26,22.54l14,3.78c.47-6.17,1.18-12.29,2.2-18.4l-14.73-2-.53,18.58a7.6,7.6,0,0,0,7.5,7.5c4.46,0,7-3.46,7.5-7.5a85.37,85.37,0,0,1,4-17H185.69a133.12,133.12,0,0,1,.84,26.32c-.54,9,11.9,9.36,14.74,2l10.76-28H197.56c3.65,9.29,2,18.84.1,28.35l14.73,2,3.38-27.76h-15l-.34,17.17c-.17,8.51,12.47,10.12,14.73,2L223,164.11l-14.73-2a109.23,109.23,0,0,1-1.51,28.6l14.74,2a99.88,99.88,0,0,1,3.94-26.44H211a63.55,63.55,0,0,1-.67,24.88l14.74,2a79.5,79.5,0,0,1,5.86-23.5l-13.71-1.8a56.39,56.39,0,0,1,.51,30.78l14.74,2,3.34-28.15h-15a67.39,67.39,0,0,1-.28,18.44c-1.54,9.35,12.52,13.56,14.47,4a54.39,54.39,0,0,1,7.16-18.17L228.46,175a50,50,0,0,1-2.29,33.3l14.73,2-.36-25.45c-.14-9.75-14.3-9.54-15,0a41.18,41.18,0,0,1-6.84,19.58l14,3.79,4-40.16h-15a108.38,108.38,0,0,1-8.33,39.19L227,213a160.29,160.29,0,0,1,10.1-25.06c4.34-8.6-8.59-16.2-12.95-7.57Z" transform="translate(-17.62 -23.61)"/><path class="cls-4" d="M101.42,172.63a73.13,73.13,0,0,0-4.63,15.74l14.73,2c.34-5.37,3-9.63,7-13.08L105.69,172c-.34,3.37-2.88,6.5-4.28,9.48a38.76,38.76,0,0,0-3.32,12.17c-1,8.69-1.54,17.45-2.55,26.15-2.17,18.67-5.34,37.21-9.3,55.58-.79,3.68,1.07,8.48,5.24,9.22a1234.74,1234.74,0,0,0,139.81,16.9,7.51,7.51,0,0,0,7.23-5.5c3-15,1.46-30.41,4.11-45.5,2.68-15.24,6.32-30.52,4.86-46.09-.32-3.42-2.12-6.19-5.5-7.23-9.07-2.79-18.2-.14-26.21,4.42-2.07,1.18-4.05,2.51-6.06,3.79-1.75,1.11-4.71,2.24-6.1,3.72q-4.4,1.44,2.34,3.42a18.29,18.29,0,0,1-.43-2.75,15.72,15.72,0,0,0-2.12-6c-3.45-5.76-11.66-4.22-13.71,1.8a47.55,47.55,0,0,0-2.07,10c-.92,8,10.26,9.31,14,3.79l11-16.28-14-3.79.82,23.41a7.57,7.57,0,0,0,14,3.79,54.76,54.76,0,0,0,7.08-16.63c2.3-9.45-11.34-13.07-14.46-4s-5.89,18.42-8.27,27.8,11.53,13.16,14.47,4a98.23,98.23,0,0,0,4.09-41.6c-.4-3.37-2.06-6.25-5.51-7.23-3-.87-7.05.51-8.47,3.44A60.65,60.65,0,0,0,196,220.8c.23,7.3,10.16,10.38,14,3.78l8.6-14.84-14-3.79,1.67,18.33c.79,8.66,11.56,9.9,14.73,2l7.51-18.7-14.73-2L213,243.14c-.13,6,8.68,10.58,12.81,5.31,6.38-8.16,7.81-17.32,8.49-27.42.58-8.75-12.23-9.75-14.74-2a188.39,188.39,0,0,0-5.42,20.79c-1.91,9.55,11.09,13,14.47,4a124.34,124.34,0,0,0,4.91-16.56l-14.46-4-4.8,31.93c-1.49,9.86-4.05,20.17-1.06,30,1.54,5,8.7,7.76,12.53,3.31l4.07-4.72-12.54-3.31,1.39,5.79,14.46-4c-2.44-7.81-12.22-12.4-19.29-7.18l11.29,6.47-.18-21.05c-.06-7.36-10.25-10.32-14-3.79a70.69,70.69,0,0,0-7.59,19.35l14.46,4a133.5,133.5,0,0,0,3-27.68c0-8.91-11.85-9.6-14.73-2a85.16,85.16,0,0,0-4.52,17c-1.48,9.31,11.78,13.5,14.46,4a63.59,63.59,0,0,0,.83-31.13c-1.32-6-11-7.62-13.71-1.79a138.33,138.33,0,0,0-8.28,22.19c-2.6,9.46,11.15,12.9,14.46,4a44,44,0,0,0,1.83-23.12c-1.08-6.48-10.77-7.1-13.7-1.79l-8.23,14.9,14,3.78a167.66,167.66,0,0,0-.65-31.28c-.39-3.36-2.07-6.25-5.51-7.23-3-.85-7.11.5-8.47,3.45a80.23,80.23,0,0,0-7.11,26c-.84,8.33,13.34,10.34,14.74,2a172.55,172.55,0,0,0,2.38-35.95c-.36-8.76-11.77-9.79-14.73-2a62.26,62.26,0,0,0-4,22.07c0,8.73,12,9.81,14.74,2a70.67,70.67,0,0,0,2.22-37.32c-.64-3.19-4.1-5.51-7.23-5.51-3.57,0-6,2.42-7.23,5.51a128.3,128.3,0,0,0-8.67,34c-1.06,8.7,12.3,9.7,14.73,2a51.22,51.22,0,0,0-.93-33.84c-2.24-5.81-10.19-7.72-13.71-1.79a57.25,57.25,0,0,0-7.81,25.16c-.59,7.33,10.76,10.34,14,3.79,5.1-10.41,6.21-22.09,2.19-33.07-2.14-5.84-10.29-7.72-13.71-1.8A29.21,29.21,0,0,0,165.28,216c1.28,6,11.05,7.67,13.71,1.8a49.36,49.36,0,0,0,3.63-31c-1.48-7.33-12.75-7-14.47,0a133,133,0,0,0-3.86,35.54c.24,8.8,11.81,9.75,14.73,2A65.47,65.47,0,0,0,181.8,189c-1.24-6.74-10.49-6.8-13.7-1.79s-2.17,10.51,1.59,14.82,11,1.78,12.53-3.31A43.6,43.6,0,0,0,184,183.19c-.67-9.56-14.71-9.75-15,0a87.91,87.91,0,0,0,1.36,17.66c.85,5,7.13,6.55,11,4.48a16,16,0,0,0,4.5-3.51L176.77,203a10.11,10.11,0,0,0,14.51-3.87l-14-3.79a8.8,8.8,0,0,1-2.19,4.52h12.95c-3.91-5.45-10.63-10.06-17.06-5.73-5.49,3.69-9,9.37-11.23,15.47-3,8.38,9.22,12.5,13.71,5.78a25.1,25.1,0,0,0,2.69-22.7c-2.14-5.67-10.38-7.88-13.71-1.79a104,104,0,0,0-9.25,23.1c-2.54,9.61,10.87,12.64,14.47,4a38.29,38.29,0,0,0,.87-26.62c-2.42-7.36-11.86-6.85-14.47,0a76,76,0,0,0-4.83,24.5c-.3,8.29,13.17,10.41,14.73,2a60.24,60.24,0,0,0-1.76-30.18c-2.48-7.52-11.69-6.66-14.46,0a66.35,66.35,0,0,0-5,24.57c-.16,8.77,12.07,9.77,14.73,2a191.63,191.63,0,0,1,7.39-18.5l-13.71-1.8a102.12,102.12,0,0,0,7.76,19.1c2.68,5.06,10.19,4.68,13,0a40.33,40.33,0,0,0,4.79-28.42c-1.18-6.46-10.72-7.13-13.71-1.79q8.16,1.29,5.6-2.57l-.53-1.19a14.21,14.21,0,0,0-2.47-3.63,9,9,0,0,0-10.11-1.59c-6.23,3-3.67,9.45-6.87,14.19l14,3.79-1.36-18.38c-.44-5.91-8.23-10.62-12.81-5.3A45.11,45.11,0,0,0,138,188.6l14.74,2a64.87,64.87,0,0,0-1-21.21c-1.33-6.57-10.54-7-13.71-1.8a115.31,115.31,0,0,0-10.53,22.64l14.73,2A56.15,56.15,0,0,0,140,177.89c-2.18-7.37-12.07-6.87-14.46,0l-7.6,21.83,14.73,2a100.68,100.68,0,0,0-1.34-20.66c-1-6.09-11.23-7.58-13.71-1.8a63.21,63.21,0,0,0-5.07,19.9h15a40.64,40.64,0,0,0-4-15.87c-2.44-5.23-10.31-4.54-13,0a40.17,40.17,0,0,0-5.54,22.08c.38,8.68,11.87,9.9,14.74,2L121,204l-14.73-2A124.62,124.62,0,0,0,108,219.67c.72,4.49,7.37,7.19,11,4.49a30.29,30.29,0,0,0,8.08-8.5l-13.71-1.79a79.39,79.39,0,0,1,1.58,15.07c.09,7.28,10.3,10.41,14,3.78a47.47,47.47,0,0,0,5.85-19.86h-15l1.46,14.49c.61,6,5.82,8.86,11.29,6.48,8.35-3.63,12.86-11.43,14-20.15h-15a19.26,19.26,0,0,1-.36,6.77l14.73,2a92.12,92.12,0,0,0-7.22-27.88c-1.82-4.22-9-5-11.78-1.52-7.41,9-8.94,21.45-2.44,31.51,2,3.17,6.83,5.12,10.26,2.69a49.18,49.18,0,0,0,16.64-19.45L137.62,206c.26-.47.13-.09-.4,1.14l14.46,4a59,59,0,0,0,.48-15c-.86-8-12.32-10.71-14.73-2a57.57,57.57,0,0,0-1.25,24.36c1.16,7.82,12.45,6.41,14.46,0a10.2,10.2,0,0,0-2.9-10.83c-3-2.67-7.63-3-10.6,0A42.91,42.91,0,0,0,125,231.78c-.52,3.75.59,7.27,4.34,8.85,3.25,1.36,7.68.27,9.37-3.07,1.8-3.58,2.53-7.26,1-11.08-2-4.88-6.16-6.56-11-4.49a19.88,19.88,0,0,0-9.09,8.21L133.25,236c1.54-9.48-.07-21.39-11.25-24-10.83-2.48-17.83,8.55-13.85,17.83,2.13,5,10.77,4.84,12.95,0,2.66-5.94,3.48-11.95,1.2-18.18-2-5.47-8.08-7.16-12.53-3.3-5.76,5-10,12.67-7.46,20.4,2.36,7.36,10.44,12.3,18,9.69L113,225.93c-9.59,10.42-.7,24.92,12.78,22.6,2.94-.51,5.82-4.23,5.51-7.24-.8-7.61-5.93-18.86-15.58-13.45-6.74,3.77-10.9,13.68-12.48,20.74a7.79,7.79,0,0,0,3.45,8.47c5.83,3.91,12.33.27,14.59-5.61,2.17-5.66-4.16-10.41-9.22-9.23-10.36,2.42-13.16,14.85-7.29,22.85,2.83,3.86,7.27,7.27,12.26,7.12a9,9,0,0,0,8.1-11.67,7.85,7.85,0,0,0-7.23-5.51c-5.7-.49-9.84,3.27-11.68,8.35L118.73,260c-2.88-3.34-3.79-7.37-8.61-8.8a10.3,10.3,0,0,0-11.78,4.51c-5.36,9.4,6.77,17.24,14.32,10.89,4.1-3.45,2.09-11.65-3.31-12.54s-11,2.28-11,8.39c0,5.89,5.52,9.26,10.89,8.93l-3.79-14-2.89,1.9L112.86,262c-5-7.93-16.12-6.16-19.1,2.4-1.43,4.11,1.67,7.84,5.23,9.23,8.82,3.43,18.18,2.45,26.52-1.76l-9.09-11.78c-3.2,2.48-4.45,6-4.56,10-.12,4.9,4.9,8.49,9.5,7.23a18.37,18.37,0,0,0,13.72-18.4c-.13-3.73-3.34-7.92-7.5-7.5a17.56,17.56,0,0,0-8,2.47l10.26,10.26a38.92,38.92,0,0,0,6-14.19,7.63,7.63,0,0,0-7.23-9.49,14.54,14.54,0,0,0-14,8.06,7.56,7.56,0,0,0,10.26,10.26,56.61,56.61,0,0,0,20.52-18.27l-13-7.57a18,18,0,0,0-2.48,9.94c.29,5.93,8.36,10.61,12.81,5.3l16.39-19.56-11.78-9.09L142,231.83l14,3.79a43.5,43.5,0,0,0-1.88-19.05c-1.43-4.41-6.76-7.21-11-4.48-6.9,4.42-11.9,11.23-13,19.45-.86,6.21,4.81,12,11,8.47a170.55,170.55,0,0,0,17.67-11.47l-11.29-6.48a32,32,0,0,1-1.11,12c-2.18,7.61,7.11,12,12.54,7.3l6.73-5.81-12.8-5.3.43,9c.37,7.8,9.66,9.72,14,3.79l8.53-11.75L162,225.5a91.49,91.49,0,0,0-1.3,16.27c.13,8.46,12.33,10.17,14.73,2l4-13.58-14.74-2a137.88,137.88,0,0,0,3,22.52c1.76,8,11.94,6.19,14.47,0a19.25,19.25,0,0,0,.25-13.76c-3.25-9.33-15.76-5.4-14.46,4a56.61,56.61,0,0,0,4.3,14.62l8.47-11a43.28,43.28,0,0,1-10.83-4.94c-8.21-5.13-15.74,7.84-7.57,13A58.63,58.63,0,0,0,176.77,259c6.93,2.07,10.85-5.41,8.47-11a43.76,43.76,0,0,1-2.79-11l-14.46,4a6.74,6.74,0,0,1-.26,5.78H182.2a112.29,112.29,0,0,1-2.49-18.53c-.42-8.33-12.28-10.33-14.73-2l-4,13.57,14.73,2a69.11,69.11,0,0,1,.77-12.28c1.38-8.47-8.59-12.83-13.71-5.78l-8.53,11.74,14,3.79-.43-9c-.32-6.74-7.85-9.57-12.8-5.3l-6.74,5.8,12.53,7.3a44.36,44.36,0,0,0,1.65-16c-.41-5-6.29-10.17-11.28-6.47a170.55,170.55,0,0,1-17.67,11.47l11,8.47c.62-4.42,2.31-8,6.15-10.49l-11-4.48A33.29,33.29,0,0,1,141,235.62c-.91,7.23,11.11,10.46,14,3.78l5.29-12.29c1.49-3.48,1.27-7.2-1.94-9.67-2.73-2.11-7.44-2.29-9.84.58l-16.4,19.56,12.8,5.31a2.35,2.35,0,0,1,.43-2.37c4.8-8.54-7.48-15.38-13-7.57a40.72,40.72,0,0,1-15.14,12.88l10.26,10.27c.56-1.14,0-.71,1.1-.63l-7.24-9.5a27.46,27.46,0,0,1-4.47,10.61c-4.29,6.29,4.08,14.06,10.26,10.26l.46-.42-7.5-7.5c.08,2.14-.58,3.36-2.71,3.94l9.49,7.23.17.65c7.05-5.46-1.92-15.4-9.09-11.78-4.93,2.49-9.92,2.2-15,.24l5.24,9.23-8.31,1.18c2.06,3.3,6.8,5,10.26,2.7l2.89-1.91c5.78-3.82,4.12-14.47-3.78-14l.63.35,3.45,4.48-.24-.75v4l-1.13,2-7.3,1.93.67.1L102.05,256l-.59.49,5.31-2.19H106l3.79,1,2,2.64-.75,5.78-2,1.73h-4c-1-.18,2.55,4.52,3.08,5.13,4,4.62,10.77,1.56,12.54-3.31L117.87,270l-7.24-5.51.29.81.75-5.78,1.55-1.31,3.78-1-1.38-.08,3.79,1a15.24,15.24,0,0,1-2.72-2.05c-.75-.58.14.4-.68.59l-9.22-9.22,4.41-3.87,3.78,1-.75-.5,3.45,8.47a26.07,26.07,0,0,1,2.58-7.29,22.77,22.77,0,0,1,1.72-2.73,17.86,17.86,0,0,1,1.38-1.62q1.47-1.43-.86.34l-5.78-.76c-2-1-.68-1.41-.45.78l5.5-7.23c1.68.29,2.28,1.11,1.81,2.47,4.75-5.16.18-15.13-7.29-12.53.46-.16.16.91.37-.46.28-1.82,2.45-3.47,3.72-4.57l-12.54-3.31c.8,2.2,1.32,4.37.31,6.61H121.1l-.45-1.05,1,3.78a3.34,3.34,0,0,1-3.43,1.39,1.64,1.64,0,0,1,.66,1.16c-.31,1.23.11,3.07-.12,4.45-1.31,8.05,9,13.45,13.71,5.77a6.75,6.75,0,0,1,3.72-2.82l-11-4.49.55-.47,13.71,5.78a29.86,29.86,0,0,1,8.29-17.51h-10.6v.05l-1-3.78.06,0h14.46a39.26,39.26,0,0,1,1.26-16.38l-14.74-2a44.25,44.25,0,0,1,.06,11c-1.35,9.45,11,13.21,14.46,4a16.09,16.09,0,0,0,.41-9.12c-1.22-6.08-11-7.57-13.71-1.79a34.64,34.64,0,0,1-11.26,14.07L137.38,217c-2.6-4-3.14-9.39.09-13.34l-11.78-1.51a68.63,68.63,0,0,1,5.18,20.31c.78,7.89,12.6,10.8,14.74,2a32.19,32.19,0,0,0,.89-10.75c-.95-9.76-13.77-9.5-15,0-.47,3.62-3.49,5.86-6.57,7.2l11.28,6.47-1.46-14.49c-1-9.55-14.25-9.73-15,0a29.76,29.76,0,0,1-3.8,12.29l14,3.79a101.79,101.79,0,0,0-2.12-19.06c-1.36-6.62-10.47-6.93-13.71-1.79a10.56,10.56,0,0,1-2.69,3.11l11,4.49A98.11,98.11,0,0,1,121.29,202c-.17-8.76-11.9-9.79-14.73-2l-1.23,3.38,14.73,2a25.6,25.6,0,0,1,3.49-14.51h-13a21.5,21.5,0,0,1,1.94,8.3c.44,9.75,14.18,9.54,15,0a40.6,40.6,0,0,1,3-12.32L116.85,185a81,81,0,0,1,.81,16.68c-.4,8.84,12.07,9.64,14.73,2l7.6-21.83H125.53a39.88,39.88,0,0,1,1.71,10.35c.26,8.63,12,10,14.73,2a97.19,97.19,0,0,1,9-19.06l-13.71-1.79a52.72,52.72,0,0,1,.44,17.23c-1.07,8.36,13,10.21,14.73,2A29.85,29.85,0,0,1,159,178.75l-12.8-5.31,1.36,18.38a7.57,7.57,0,0,0,14,3.78,21.28,21.28,0,0,0,3-6.42,22.71,22.71,0,0,0,.54-3.18,9.13,9.13,0,0,0,.16-1.73c.2-2-.53-1.17-2.21,2.52l-5.78.76,1,.42-4.49-3.45c3,4,3.9,8.75,9.26,10.55a10.57,10.57,0,0,0,12.88-4.68l-13.71-1.79a24.07,24.07,0,0,1-3.29,16.86h13A82,82,0,0,1,165.63,190c-1.67-5.72-10.87-7.91-13.7-1.79a227.74,227.74,0,0,0-8.9,22.08l14.73,2a55.37,55.37,0,0,1,4.46-20.59H147.76a44.36,44.36,0,0,1,1.76,22.21l14.73,2a63.06,63.06,0,0,1,4.3-20.51H154.08a25.41,25.41,0,0,1-.87,18.64l14.47,4a86.26,86.26,0,0,1,7.74-19.52l-13.71-1.79c1.55,4.12,1.27,7.48-1.18,11.14l13.71,5.78a15.49,15.49,0,0,1,5.57-7.39L174,207a1.39,1.39,0,0,1,1.08.47c3.5,4.88,9.41,4.68,12.95,0,2.74-3.63,3.82-7.62,4.24-12.09.69-7.33-10.81-10.32-14-3.78l3.1-2,3.79,1-.88-.57a7.57,7.57,0,0,0-9.09,1.17,1.91,1.91,0,0,1-1.46,1.17l11,4.48a68.72,68.72,0,0,1-.82-13.67H169a31,31,0,0,1-1.23,11.53l12.53-3.31.76,3.36L167.34,193a50.65,50.65,0,0,1-2.78,27.31l14.73,2a117.16,117.16,0,0,1,3.33-31.55H168.15A31.82,31.82,0,0,1,166,210.17l13.71,1.8a13,13,0,0,1,1.71-9.8l-13.71-1.8c2.63,7.17,2.74,14.56-.67,21.51l14,3.79a40.57,40.57,0,0,1,5.76-17.59l-13.71-1.79a37.83,37.83,0,0,1,.93,25.86l14.74,2a114.74,114.74,0,0,1,8.13-30.05H182.45a55.4,55.4,0,0,1-2.23,29.34l14.73,2a50,50,0,0,1,3.44-18.08l-14.74-2a153.35,153.35,0,0,1-1.85,32l14.73,2a58.65,58.65,0,0,1,5.06-18.46l-14-3.79a167.66,167.66,0,0,1,.65,31.28c-.55,7.52,10.5,10.07,14,3.79l8.23-14.9-13.71-1.79a29,29,0,0,1-1.83,15.14l14.46,4A116,116,0,0,1,216.16,246l-13.71-1.79a47.08,47.08,0,0,1-.82,23.16l14.46,4a85.93,85.93,0,0,1,4.52-17l-14.73-2a113.6,113.6,0,0,1-2.5,23.69c-2,9.4,12.31,13.43,14.46,4a57,57,0,0,1,6.08-15.77l-14-3.78.18,21.05c0,5.21,6.53,10,11.28,6.48-.42.31-2.53-1.12-2.74-1.78,2.88,9.2,16.72,5.43,14.46-4l-1.39-5.79c-1.25-5.24-8.86-7.57-12.53-3.31l-4.06,4.72,12.53,3.31c-2.47-8.12.42-17.74,1.64-25.88l4.22-28.06c.61-4-1-8-5.24-9.23-3.75-1.07-8.35,1.3-9.22,5.24a123.5,123.5,0,0,1-4.92,16.56l14.47,4A186.19,186.19,0,0,1,234,223l-14.73-2c-.37,5.48-.54,12.26-4.1,16.81l12.8,5.3.81-37.55c.2-9.06-11.76-9.38-14.73-2l-7.51,18.7,14.73,2L219.64,206c-.64-7-10-10.66-14-3.78L197.06,217l14,3.79a44.34,44.34,0,0,1,4.23-21l-14-3.78a87.6,87.6,0,0,1-3.56,37.61l14.47,4q3.56-14.08,8.26-27.81l-14.46-4a42,42,0,0,1-5.58,13l14,3.78-.82-23.41c-.26-7.64-9.84-9.92-14-3.78l-11,16.28,14,3.78a29.52,29.52,0,0,1,1.54-6.05l-13.71,1.8c1,1.61.68,3.95,1.26,5.76a12.28,12.28,0,0,0,3.7,5.64c4.67,4,10.09,2.3,15-.26,8.28-4.34,17.46-14,27.6-10.84l-5.51-7.23c1.4,14.94-2.17,29.32-4.64,43.94a160.74,160.74,0,0,0-2.36,22.2c-.2,7.18,0,14.38-1.43,21.46l7.23-5.51A1201.3,1201.3,0,0,1,95.47,270.11l5.24,9.23q6.15-28.59,9.6-57.64c1.1-9.17,1.32-18.57,2.74-27.68,1.23-7.9,6.81-13.9,7.64-22.05.72-7.05-8.39-9.08-12.8-5.3-7.06,6.05-10.79,14.51-11.37,23.69-.53,8.33,13.26,10.38,14.73,2a72.43,72.43,0,0,1,4.64-15.74c1.58-3.76-1.71-8.22-5.24-9.23-4.32-1.23-7.66,1.52-9.23,5.24Z" transform="translate(-17.62 -23.61)"/><path class="cls-5" d="M187.09,251.58l-13-.43c-1.3-.1-2.59-.22-3.88-.35a8.72,8.72,0,0,0-5-11.57c-5.1-2-12-1.15-17.38-1.12-6.38,0-12.75.33-19.11.82-9.54.73-9.76,14.69,0,15l7.6.24c-1.75,4.27.53,10.47,6.64,11q7.91.64,15.8,1.51a7.24,7.24,0,0,0,5.88,3l6.87-.06a7.48,7.48,0,0,0,4.23-1.37,7.63,7.63,0,0,0,3.55-1.73c2.6.11,5.21.16,7.82.11C196.75,266.36,196.74,251.89,187.09,251.58Z" transform="translate(-17.62 -23.61)"/><path class="cls-4" d="M129.91,269.31a21.81,21.81,0,0,0,15.91-2c8.08-4.18,2.07-15-5.78-13.7a167.52,167.52,0,0,1-32.65,2.05c-8.24-.26-10.5,13.59-2,14.73a228.48,228.48,0,0,1,35.2,7.6l-5.24-9.22,2.45-2.18c-5.23,2.15-8.33,10.68-1.8,13.71s13.32,4.55,20.55,3.6c8.17-1.07,10.45-11.79,2-14.73a138.37,138.37,0,0,0-52-7.51c-8.21.38-10.48,12.54-2,14.73,32.17,8.3,65.5,5.61,98.17,10,4.05.55,8-1,9.23-5.24a7.58,7.58,0,0,0-5.24-9.22,49.32,49.32,0,0,1-14.86-6.27l1.52,11.78,4.67-3.8c4.36-3.54,1.87-11.38-3.31-12.53a60.44,60.44,0,0,0-15.46-1.51c-9.61.35-9.7,15,0,15H195.5c9,0,9.46-11.73,2-14.73a64.53,64.53,0,0,0-36.93-3.09c-8,1.59-6.13,12,0,14.47,4.48,1.79,9.09.24,12.49-2.88,4.21-3.85,2-11.11-3.31-12.53a99.64,99.64,0,0,0-21.08-3.3l2,14.74c14.56-3.42,14.36-20.41,8-30.82-2.75-4.51-8-9.61-7.06-15.33s6.58-10.53,10.58-14.29l-12.8-5.31q-.81,10.69-1.63,21.38c-.36,4.73,5.1,8.69,9.5,7.23a33.05,33.05,0,0,0,9.27-4.6l-11-4.49,2.33,8.59c1.23,4.55,6.91,7.08,11,4.49a17.85,17.85,0,0,0,8.37-11.57c1.34-6.4-5.08-11.71-11-8.47a42.85,42.85,0,0,0-9.21,6.8l12.54,7.29,2-9.39-14.73-2,0,12.09c0,6.43,8.23,10,12.8,5.31a102.41,102.41,0,0,0,14.65-19.08l-11.78,1.52c-1.69-1.68-.71-3.66-1.27-.36a27.08,27.08,0,0,0-.53,3.9,10.47,10.47,0,0,0,3.81,8.73c6.6,5.17,17.07-.46,23.5-3.39,3.72-1.69,4.55-7,2.69-10.26-2.17-3.81-6.6-4.35-10.26-2.69-2.86,1.3-7.5,3.7-10.68,3.35l3.79,1c2.9,1.62,1.55,4.59,2.34,2.33a16.47,16.47,0,0,0,.61-4.45,11.44,11.44,0,0,0-3.4-8.79,7.59,7.59,0,0,0-11.78,1.52,84.78,84.78,0,0,1-12.3,16l12.81,5.3,0-12.09c0-8.24-12.9-10.45-14.73-2l-2,9.4c-1.56,7.22,7,12.64,12.54,7.29a27.61,27.61,0,0,1,6.17-4.45l-11-8.47c-.31,1.49-.22,1.82-1.47,2.6l11,4.49L170,217.1c-1.17-4.3-7-7.38-11-4.49a20.19,20.19,0,0,1-5.69,3.1l9.49,7.23q.83-10.69,1.63-21.38c.52-6.8-8.38-9.45-12.8-5.3-8.63,8.1-17.15,18.38-14.59,31.05,1.18,5.84,4.72,10.54,7.88,15.43,1.17,1.81,6,9.12,1.78,10.1-8.52,2-6.2,14.33,2,14.73a80.59,80.59,0,0,1,17.1,2.76l-3.31-12.54,2.1-1v14.47a50.46,50.46,0,0,1,28.95,3.08l2-14.73H179.31v15a44.25,44.25,0,0,1,11.48,1l-3.31-12.54-4.68,3.81c-3.91,3.17-2.21,9.44,1.52,11.77a62.59,62.59,0,0,0,18.44,7.78l4-14.46c-32.59-4.39-66.14-1.75-98.18-10l-2,14.73a126.42,126.42,0,0,1,48,7l2-14.73c-4.51.59-8.8.39-13-1.55l-1.79,13.71c4.12-1.69,6.71-4,8-8.31,1.2-3.94-1.44-8.08-5.24-9.22a226.4,226.4,0,0,0-35.2-7.6l-2,14.73A187.37,187.37,0,0,0,144,268.1l-5.78-13.71a5.59,5.59,0,0,1-4.35.46c-9.38-2.29-13.38,12.17-4,14.46Z" transform="translate(-17.62 -23.61)"/><path class="cls-1" d="M544.43,56.77l.75-.22a3.48,3.48,0,0,1,3.55,1l41,45.28a3.48,3.48,0,0,1-.15,4.83l-28.74,27.82a3.47,3.47,0,0,0-1,3l23.51,145a3.47,3.47,0,0,1-2.86,4L434.23,311.62a3.48,3.48,0,0,1-4-2.87L406.47,162.84a3.49,3.49,0,0,0-2-2.61l-35.89-16a3.47,3.47,0,0,1-1.75-4.61l25.73-56.7a3.51,3.51,0,0,1,2.19-1.9l5.82-1.71a3.45,3.45,0,0,1,4.16,1.94,18.45,18.45,0,0,0,11.85,10.72,3.58,3.58,0,0,0,1.26.12c5-.4,10.88-.51,13.58-8.3,1-3,1-.94.93-5.37a3.46,3.46,0,0,1,2.3-3.32,14.87,14.87,0,0,1,1.83-.5,3.46,3.46,0,0,1,3.67,1.56c2.89,4.7,11.22,16.57,22.54,18.25,13.8,2,22.35-.32,30.5-3.68a3.53,3.53,0,0,0,1.14-.77c5.23-5.26,12.29-9.68,12.76-22.8a3.44,3.44,0,0,1,2.45-3.2l.11,0S536.24,92.44,544.43,56.77Z" transform="translate(-17.62 -23.61)"/><path class="cls-1" d="M525.62,75.11" transform="translate(-17.62 -23.61)"/><path class="cls-2" d="M452.17,78.16l42.95-6.37s-2.82,8.12-10.5,10.38-14.39,4.23-21.27,2.08A31.89,31.89,0,0,1,452.17,78.16Z" transform="translate(-17.62 -23.61)"/><line class="cls-3" x1="396.78" y1="25.46" x2="399.78" y2="53.46"/><line class="cls-3" x1="501.7" y1="5.08" x2="508.53" y2="35.39"/><path class="cls-4" d="M455.79,80.18c12.3-.17,25-3.69,37.11-5.73l-1.46-2.51c-2,2.29-3.85,4.58-6.64,6a49.67,49.67,0,0,1-8.71,2.71c-3.46.93-6.87,1.78-10.48,1a53.28,53.28,0,0,1-8.39-3l-.4,2.94c4.9-.34,9.62-1.68,14.47-2,5.65-.33,10.83-2.65,16.44-3.17l-1.3-2.25c-1.35,2.2-7.73,3.15-10.22,3.75-3.77.92-8.06,2-11.92,1.23-1.89-.37-2.7,2.52-.8,2.9,4.71.94,9.81-.28,14.39-1.46,3.18-.82,9.25-1.83,11.14-4.91a1.51,1.51,0,0,0-1.29-2.26c-5.61.52-10.82,2.88-16.44,3.17-4.88.25-9.55,1.62-14.47,2a1.51,1.51,0,0,0-.4,3c7.53,3,12.58,4.06,20.46,1.94a57.63,57.63,0,0,0,9.28-2.88c3.14-1.46,5.13-4,7.4-6.55a1.51,1.51,0,0,0-1.46-2.5c-11.81,2-24.32,5.46-36.31,5.62-1.93,0-1.93,3,0,3Z" transform="translate(-17.62 -23.61)"/><path class="cls-4" d="M391.31,90.37l-.05.58L405,96.73l2.27-6.81-14.46-4c-5.14,17.84-17.91,33.5-27.94,48.84-3.47,5.31,1.3,10.6,6.47,11.29a70.38,70.38,0,0,1,31.25,12.73c6.56,4.64,13.4-4.15,10.26-10.26q-8.13-15.84-17.24-31.11c-3.41-5.71-11.75-4.28-13.71,1.79l-4.2,13c-2.28,7,7.55,12.83,12.53,7.3a175.17,175.17,0,0,0,19.47-26.1L396,111.61a19.14,19.14,0,0,1,.47,5.55h15l.4-21.76L399,100.71C408.36,108,420.49,110.88,432,107c11.67-4,18.89-16.81,10-27.26-5.48-6.43-16.58,2-11.78,9.09,5.57,8.17,12.86,16,21.81,20.54,10.05,5.05,20.47,3.32,31,.92,8.91-2,19.12-4.45,26.75-9.72,9.48-6.56,10.47-16,9-26.7l-14.46,4c1.29,7.24,4,14,10.8,17.66,6.23,3.33,14,2.9,20.59,1.15,13.86-3.66,26.77-17,21.07-32.25-3.33-8.89-17.48-5.34-14.47,4,5.6,17.33,20.21,28,31.42,41.48V99.25a196.43,196.43,0,0,1-30.28,26.14c-7.86,5.48-.37,18.49,7.58,13a216.53,216.53,0,0,0,33.31-28.48c3-3.14,2.65-7.42,0-10.61C575,88.07,561.33,78.72,556.71,64.4l-14.47,4c2.78,7.42-4.19,12.12-10.59,13.81-2.75.72-6.9,1.66-9.56.13s-2.89-5.73-3.38-8.47c-.71-4-5.58-6.26-9.22-5.24-4.33,1.21-5.81,5.18-5.24,9.23.94,6.75-.78,9.81-7,12.48a109.67,109.67,0,0,1-20.09,5.89c-7,1.49-13.49,2.81-19.88-1.07A47.37,47.37,0,0,1,443.1,81.23l-11.77,9.09c-1-1.21.24-.42-.34.07a12.35,12.35,0,0,1-2.05,1.67,16,16,0,0,1-6.38,1.62,19.09,19.09,0,0,1-12.92-3.58c-4.94-3.86-12.67-1.72-12.8,5.3l-.4,21.76c-.18,9.67,14.64,9.62,15,0a35.24,35.24,0,0,0-1-9.54c-1.53-6.44-10.46-7.12-13.71-1.79a153.6,153.6,0,0,1-17.12,23.06l12.53,7.3,4.2-13L382.62,125q9.12,15.29,17.25,31.11l10.26-10.26a85.75,85.75,0,0,0-38.82-14.78l6.48,11.28c10.85-16.58,23.89-33.13,29.45-52.42,2.69-9.34-11.42-13.09-14.46-4l-2.28,6.82c-2.72,8.15,9.49,13,13.71,5.78a14.18,14.18,0,0,0,2.1-8.16c-.41-9.62-15.42-9.67-15,0Z" transform="translate(-17.62 -23.61)"/><path class="cls-4" d="M557.89,96.09l-7.39,7.68c-6.69,7,3.79,17.47,10.61,10.6l3.18-3.2c6-6-1.67-16.14-9.09-11.78A172.59,172.59,0,0,0,539.27,110l11,8.47q3.13-11,7-21.7l-13.71,1.79,1.81,3.8c2.51,5.28,10.22,4.47,13,0a16.56,16.56,0,0,0,2.55-10.85l-14.73,2L549,100.6c1.27,3.11,3.66,5.5,7.24,5.5,3.07,0,6.67-2.3,7.23-5.5,1.38-7.86-2.09-19.7-12-19.47-4.68.1-7.49,3.29-10,6.83-2.92,4.15-5.73,8.39-8.59,12.59h12.95L544,96.62c-2.7-5.49-10-4.21-13,0a43.21,43.21,0,0,0-5,9.53c-1.5,3.8,1.65,8.2,5.24,9.23,4.27,1.22,7.71-1.5,9.23-5.24l3.39-8.41c2.84-7-7.75-12.63-12.53-7.29a142.67,142.67,0,0,1-15.74,15.06l12.8,5.3a30.65,30.65,0,0,1,2-9.44c2.91-8-9.7-13.19-13.71-5.78a73.92,73.92,0,0,1-6.24,9.68L524.2,115a60.57,60.57,0,0,0,2.4-12.67c.61-6.75-8.47-9.52-12.81-5.3L509,101.76l12.53,7.29a24.15,24.15,0,0,0,.27-10c-1.06-6.92-10.49-6.57-13.7-1.79a59.66,59.66,0,0,0-5.5,10.12c-1.6,3.76-1.09,8,2.69,10.26,3.34,2,8.41.9,10.26-2.69,3.47-6.71-1.1-15-9.12-14.24-7.15.66-11.86,8.76-15.74,14l12.95,7.57a27.7,27.7,0,0,0,2.54-7.64c.78-5-3.28-11.49-9.23-9.22a23.59,23.59,0,0,0-10.74,7.39c-6,7.57,3,16.8,10.61,10.61A18.23,18.23,0,0,0,503,113c1.29-5.86-3.51-10.3-9.22-9.22a39.56,39.56,0,0,0-19.29,9.82c-5.68,5.1.31,14.5,7.29,12.54a24.25,24.25,0,0,0,14.29-10.77c3.11-5-1-11.17-6.48-11.29a28.21,28.21,0,0,0-22.86,10.52c-3.59,4.58-1.89,13.28,5.3,12.8,8.86-.59,20.17-13.39,9.93-20.36-7.49-5.11-20.25.81-26.57,5.46-4.07,3-5.6,10.31,0,13,8.39,4,17.82-5.29,11.8-13.39-5.5-7.41-16.44-3.58-23.2-.37-6.17,2.92-3.89,11.9,1.79,13.7,7,2.21,13.79-5.14,10.85-12-3.16-7.32-12.19-7.27-18.8-5.75-8.17,1.87-6.49,15.14,2,14.73,6.47-.32,11.55-4.05,13.33-10.36,1.19-4.23-1.49-7.72-5.24-9.23-8.11-3.27-16.2.39-21.23,6.92-4.17,5.41,2.69,12.62,8.47,11a9,9,0,0,0,4.21-15.09c-4.29-4.37-11.64-3.94-17-2.27-6.64,2-7.62,12.94,0,14.46,5.3,1.06,10.37-.06,14.09-4.17s2.48-11.23-3.31-12.54a29.61,29.61,0,0,0-26.88,7c-5.34,4.73-.6,12.21,5.31,12.81,4,.41,7.43-.57,11.08-2.21,2.79-1.26,4.49-5.62,3.45-8.47-2.89-7.93-14.31-10.52-20.42-4.38a9.49,9.49,0,0,0,9.14,15.93l-4-14.46a13.29,13.29,0,0,0-10.06,13.57l7.5-7.5c-6.2-.57-10.26,4.43-10.61,10.17-.2,3.3,2.48,6.35,5.51,7.24a18.9,18.9,0,0,0,9.06.3c7.87-1.3,6.35-12.32,0-14.46-7.07-2.39-14.49,4.11-13.1,11.44,1.44,7.65,10.2,10.37,16.53,6.67,8.35-4.87.92-17.54-7.57-13a13.92,13.92,0,0,0-7.17,10.05c-.78,4.55,1,7.63,3.09,11.45l-1-3.79c.36,2.8.67,9,4.4,10,1.22,1,1.21.64,0-1q-1.1-3-.9-.36a11.43,11.43,0,0,0,.66,5.49,7.6,7.6,0,0,0,13.71,1.79A41.26,41.26,0,0,0,427,136.51c.63-7.22-11-10.5-14-3.79l-2.94,6.57c-3.86,8.61,8.18,16.2,12.95,7.57a39.36,39.36,0,0,0,3.26-31.29,7.6,7.6,0,0,0-13.71-1.8,40.88,40.88,0,0,0-6.63,21.83c-.16,6.85,8.13,9.42,12.8,5.3A43.22,43.22,0,0,0,431,122.25c2.37-6.8-5.61-10.92-11-8.47-11.37,5.17-6.81,20.82,3.7,23.63,10.92,2.93,21.9-6.48,26.86-15.35a7.61,7.61,0,0,0-2.69-10.26c-12.19-6.89-23.41,7.21-24.94,18.27-.73,5.21,1.93,8.88,7.23,9.49a29.55,29.55,0,0,0,29.61-16.93c2.31-5.19-.37-11-6.47-11.29-9.85-.38-20.74,12-11.21,20.13,8.18,7,21.55.44,27.71-6.21,3.47-3.75,2.58-11.56-3.31-12.53-6.26-1-12,1.25-14.82,7.2a11.92,11.92,0,0,0,4.63,15.25c4.61,2.82,11.16,2.47,15.18-1.25,4.26-3.93,5-11.43.08-15.21a9,9,0,0,0-14,5c-1.66,6.18,2.78,11.7,8.52,13.41,10.34,3.08,24.57-2.45,31.45-10.22,3.45-3.88,2.61-11.4-3.3-12.53-6.94-1.33-12.3,2.09-14.76,8.64-2.16,5.74-1,12.07,5,14.81,9.8,4.51,22.81-4.71,28.64-12,2.36-3,3-6.67.58-9.84-2.13-2.77-6.59-4.07-9.67-1.94-5.78,4-9.91,9.48-11.18,16.49-.68,3.76,1,8.37,5.24,9.22,12.26,2.47,23.68-8.77,31-17.36l-12.54-7.3c-1.07,4.76-1.32,9.59,1.48,13.78,3.19,4.76,8.86,5.36,14.09,4.46,8.83-1.51,21.94-10,18-20.6-1.94-5.26-8.22-7.43-12.54-3.3-6.2,5.91-14.65,22.1-2.34,26.51,10.76,3.85,19.53-8.25,20.13-17.57.33-5.13-5-8.19-9.49-7.24a31.43,31.43,0,0,0-15.65,8.61l12.54,3.31c-1.44-5.42-2.36-12-8.82-13.38-7-1.46-11.41,4.84-11.22,11.13.22,7.16,10.31,10.55,14,3.78a23.3,23.3,0,0,0,2.39-6.17H524.53l2.83,10.43c2.53,9.3,17,5.35,14.47-4L539,114.47c-1.88-6.91-12.85-7.38-14.47,0a5.4,5.4,0,0,1-.87,2.59l14,3.79-2,2.58-5.78.76c-1.9-.28-4.05-6.13-2.68-1l1,3.88a7.58,7.58,0,0,0,12.54,3.31,16.87,16.87,0,0,1,9-4.75l-9.49-7.23c-.07,1-.52,1.33-.86,2.23a2.55,2.55,0,0,1-1,.8q-3.87,2,5.49,5.31c.67-.77,1-2.74,1.53-3.66a15.33,15.33,0,0,1,2.62-3l-12.54-3.31q1.05-2.62-.22-1.1a6.78,6.78,0,0,1-1.64,1.28,19.77,19.77,0,0,1-3.34,1.46,6.89,6.89,0,0,1-1.36.31c-1.62.09-1.08,1,1.6,2.62,0,0,.37-2.55.29-2.21,1.53-6.77-7.35-13.36-12.53-7.3a67.92,67.92,0,0,1-8.25,8.28c-1.67,1.38-6,5.66-8.17,5.23l5.23,9.23c.56-3.1,1.61-5.67,4.29-7.52l-9.09-11.78a25.42,25.42,0,0,1-6.89,6.27,21.06,21.06,0,0,1-3.69,1.74c-4,1.42-1.55-.77.54,2.49l1,3.79c-.24-2.55,1.21-1.44-.62-1h-4l1.39.26-3.31-12.53a17.52,17.52,0,0,1-8.89,5.4,29.22,29.22,0,0,1-5.24,1,15.77,15.77,0,0,1-2.38.05q-1.65-.58,1.48,1.44v4l-3.57,3.3-5.78-.75-1.56-1.7-1-3.79c-1.42-11.22,11.54,3.39,2.58,1.91l-3.31-12.53a13.83,13.83,0,0,1-5.21,3.83,20.19,20.19,0,0,0-2.63.71c-1.68,1-.86-2.52,1.22,1.56l1,3.79c-1.31,1.19-1.41,1.79-.29,1.79l-6.48-11.28c-3.07,6.89-9.18,10.36-16.66,9.5l7.23,9.5c.52-3.74,1.86-8.84,6.17-9.43h-4l.72.12-2.69-10.26a18.83,18.83,0,0,1-5.73,6.53c-.75.53-3.26,1.24-3.66,1.82-.29-.07-.49,0-.6.17a3.12,3.12,0,0,1-.05,3.73l-11-8.47a28.14,28.14,0,0,1-8.38,12l12.81,5.3a26.11,26.11,0,0,1,4.58-14.26l-13.71-1.79a24.18,24.18,0,0,1-1.74,19.74L423,146.86l2.94-6.56-14-3.79a24.92,24.92,0,0,1-4.09,11.31l13.7,1.79c-.66-2.08,0-4.57-.73-6.8a9.62,9.62,0,0,0-2.64-4.08l-1.52-1.18q-2.1-1.19.48.63l1,3.79c-.13-2.33-.29-4.71-1.53-6.76-1.4-2.3-.46-.74-1-.44l-7.57-13,4.88,1.5,1,3.78-2.71,3.7h-4l1,.32V116.66l-1.09-.31,5.51,7.23.07-1.21-1,3.79-.86,1.12-3.79,1,1.21.11c3.89.36,7.72-3.72,7.5-7.5a2,2,0,0,0-.95.89c9.3-2.56,5.38-16.86-4-14.46l-.88.22h4l3.45,3.28v4l-1,1.82-3.79,1c.82-.09,1.45-.31,2.11.13l-3.45-4.49.33.92,3.45-8.47a6.63,6.63,0,0,1-3.51.17l5.3,12.8a13.69,13.69,0,0,1,12.29-3.09l-3.31-12.54c-.62.62-.45.73.5.32v14.46a10.6,10.6,0,0,1,2.4-.62q2.81.36.39-.59l-2.19-5.3.13,1,1-3.79-.49.9,4.49-3.45-.9.25,8.47,11c1.07-1.39,3.1-.51,4.29,0l-5.24-9.23a9.86,9.86,0,0,1,1.14-.65l2,14.73c2.81-.64,3.58.77,1.48-2l-1-3.79v.91l1-3.79,1.45-1.51,5.78-.76-.76-.24,1.79,13.71a20.38,20.38,0,0,1,4.23-1.47l1.57-.33q3.69.08-3.08-3.37v-4l3.62-3.4,5.78.76-.72-.34v13a27.76,27.76,0,0,1,6.7-3.85,24.49,24.49,0,0,1,3.11-.9,10.24,10.24,0,0,1,2.19-.37c1,0,.82-.14-.57-.34L471,115.53l.3.76v-4c-.51.31-.25.35.78.11l5.3,12.8c3.21-4.1,7-6.24,12.26-6.12l-6.47-11.28a8.45,8.45,0,0,1-5.32,3.87l7.29,12.54a25.23,25.23,0,0,1,12.67-6L488.56,109a5.36,5.36,0,0,1-2.38,3.69l10.61,10.61a9.81,9.81,0,0,1,4.12-3.54l-9.22-9.22a14.89,14.89,0,0,1-1,4c-4.14,8.85,7.2,15.28,12.95,7.57,1.13-1.52,4-6.49,5.79-6.94h-4l-3.14-3,.76-5.78-.46.88,12.95,7.57a60,60,0,0,1,5.5-10.12L507.31,103a4.14,4.14,0,0,1-.27,2.09c-1.79,7.25,7.09,12.58,12.53,7.29l4.83-4.68-12.8-5.31a42.23,42.23,0,0,1-1.86,8.68,7.49,7.49,0,0,0,4.34,8.85c3.71,1.56,7.06,0,9.36-3.07a74,74,0,0,0,6.25-9.68L516,101.37a43.91,43.91,0,0,0-2.51,13.43c-.28,7.06,8.13,9.14,12.8,5.3A141.75,141.75,0,0,0,542,105l-12.53-7.29-3.4,8.4,14.47,4a28,28,0,0,1,3.45-6h-13l1.93,3.93c2.67,5.41,10,4.29,12.95,0l5.05-7.41,2-3c.33-.48,2.43-3,1.79-2.59l-3.78,1c-4.6.5-1.42-2.71-2,.42h14.47l-2.89-7.11c-1.42-3.5-4.24-5.91-8.23-5.37-3.32.45-7,3.66-6.5,7.36.19,1.61.29,2-.5,3.28h13L556.53,91c-3-6.33-11.72-3.71-13.71,1.8q-3.87,10.73-7,21.69c-1.65,5.8,5.58,12.53,11,8.47a172.59,172.59,0,0,1,15.93-10.59l-9.08-11.78-3.19,3.21,10.61,10.6,7.39-7.67c6.69-7-3.9-17.58-10.61-10.61Z" transform="translate(-17.62 -23.61)"/><path class="cls-4" d="M409.51,154.55A159.24,159.24,0,0,0,406.22,183c-.23,9.66,14.7,9.64,15,0a130.31,130.31,0,0,1,7.93-40.71H414.68l3.53,18.75c1.14,6,11.11,7.59,13.71,1.79a86,86,0,0,0,7.61-31.41h-15l2.86,23.44c.83,6.81,10,10.92,14,3.78a27.34,27.34,0,0,0,2.82-20c-1.86-8.27-14.93-6.44-14.73,2a107.88,107.88,0,0,0,2.77,22c1.82,7.91,11.95,6.29,14.46,0a169.82,169.82,0,0,0,6.91-21.24H439.13l4.7,21.26c1.37,6.19,10.78,7.43,13.71,1.79,4.13-8,4.12-16.23,3.21-25-1-9.48-14.43-9.8-15,0a39.5,39.5,0,0,0,1.78,14.2,7.59,7.59,0,0,0,13.7,1.79,76.13,76.13,0,0,0,7.24-15.39l-13.71,1.79a57,57,0,0,1,5.13,9.9c2.77,7.17,11.63,7,14.46,0a39.9,39.9,0,0,0,2.79-17.49l-14.73,2,5.13,20.16c2,7.84,11.87,6.34,14.46,0a118.64,118.64,0,0,0,7.44-26.72H475l7.68,21.18c2.61,7.18,11.79,7,14.46,0a58.56,58.56,0,0,0,3.74-19.9l-14.73,2,6.77,23.24c2.14,7.32,12.16,6.92,14.47,0l7.12-21.34H500l5.21,26c1.37,6.87,10.32,6.63,13.71,1.79,5.75-8.22,8-18,9.79-27.68H514.27a83.54,83.54,0,0,1,3.08,20.3c.24,8.52,12.17,10.1,14.74,2l7.47-23.58-13.71,1.8,4.72,10.33c2.64,5.79,12.48,4.29,13.7-1.79a38.48,38.48,0,0,0,.19-14.43l-14.47,4,3.68,19.81c1.33,7.18,13.1,7.14,14.46,0a60.27,60.27,0,0,0,.41-20.36c-1.15-8.28-15.65-6.42-14.73,2a149.31,149.31,0,0,0,4.09,22.4c1.85,6.94,12.84,7.35,14.46,0a157.78,157.78,0,0,0,3.45-24.57l-14.73,2L544,145.32c2.17,7.85,15.73,6.64,14.74-2l-.85-7.33-14.73,2c3.3,21.1,6.91,43.09,6.21,64.49l14.73-2L563,196.33c-2.37-9.35-16.85-5.39-14.46,4l1.06,4.16c2.13,8.36,14.46,6.33,14.73-2,.75-22.7-3.25-46.1-6.75-68.48-1.29-8.26-15.7-6.42-14.73,2l.85,7.33,14.73-2-2.87-10.42c-2.32-8.4-14.22-6.28-14.74,2a132.27,132.27,0,0,1-2.91,20.58h14.46a123.63,123.63,0,0,1-3.55-18.41l-14.73,2a38.46,38.46,0,0,1-.41,12.39h14.46l-3.67-19.82c-1.78-9.54-16-5.42-14.47,4a17.7,17.7,0,0,1-.18,6.45l13.71-1.79L538.81,128c-2.85-6.24-11.93-3.83-13.71,1.8l-7.48,23.58,14.73,2A100.27,100.27,0,0,0,528.73,131c-1.87-6.76-13-7.52-14.46,0-1.61,8.5-3.24,16.9-8.28,24.1l13.7,1.79-5.21-26c-1.54-7.73-12.29-6.51-14.46,0l-7.13,21.34h14.47L500.58,129c-2.37-8.13-14.57-6.53-14.73,2a46.13,46.13,0,0,1-3.2,15.91h14.46l-7.67-21.18c-2.24-6.17-13.22-8-14.47,0a119.14,119.14,0,0,1-7.43,26.72H482l-5.12-20.16c-2.05-8-15.26-6.58-14.74,2a29.62,29.62,0,0,1-2.25,13.5h14.46a77.34,77.34,0,0,0-6.63-13.48c-3.57-5.66-11.6-4.3-13.71,1.79a59.09,59.09,0,0,1-5.73,11.81L462,149.7a27.34,27.34,0,0,1-1.24-10.21h-15c.6,5.69,1.57,12.11-1.17,17.39l13.71,1.79-4.7-21.26c-1.61-7.29-12.68-7-14.46,0a173.88,173.88,0,0,1-6.91,21.25h14.46a88.12,88.12,0,0,1-2.23-18l-14.74,2a11.25,11.25,0,0,1-1.3,8.44l14,3.79-2.86-23.44c-1.15-9.37-14.54-9.89-15,0A65.89,65.89,0,0,1,419,155.27l13.71,1.79-3.52-18.74c-1.49-7.91-12.18-6.3-14.47,0A143.78,143.78,0,0,0,406.22,183h15A136.86,136.86,0,0,1,424,158.54c1.94-9.42-12.52-13.45-14.46-4Z" transform="translate(-17.62 -23.61)"/><path class="cls-4" d="M535.53,171.5a185.39,185.39,0,0,0-3.12,30.82c-.14,9.88,13.93,9.34,15,0A123.77,123.77,0,0,0,544,156.46c-2.49-9.44-16.24-5.39-14.46,4l7.51,39.64c1.44,7.6,12.49,6.67,14.46,0a57.23,57.23,0,0,0,1-28.62l-14.46,4,7.52,24.31c2.63,8.5,13.83,6.18,14.73-2a63.16,63.16,0,0,0-9.34-40.21c-3.37-5.4-12-4.56-13.71,1.8A67,67,0,0,0,535,182.74h15A80.84,80.84,0,0,0,544.46,161c-3.7-8.84-16.1-5.7-14.46,4l4.73,28c1.42,8.39,15,6.35,14.73-2a71.59,71.59,0,0,0-11.31-37c-4.29-6.64-13.15-3.42-14,3.79a98.49,98.49,0,0,0,1.35,30.11c1.6,8.25,15.3,6.45,14.73-2a82.89,82.89,0,0,0-8.52-31.67c-3.37-6.82-14-3.35-14,3.79A116.55,116.55,0,0,0,522,188.42c2.19,7.86,15.57,6.67,14.73-2a123.45,123.45,0,0,0-7.2-31.85c-2.82-7.51-14.86-7-14.73,2l.43,29.35,14.73-2-4.52-16.57c-2.58-9.49-16-5.35-14.46,4l4.59,27.59c1.37,8.26,15.49,6.43,14.73-2-1.2-13.17-3.07-25.61-11.41-36.3-4.41-5.65-12.34-.39-12.8,5.3l-2.44,29.88,14.74-2a151.46,151.46,0,0,0-9.81-28.63c-3.27-7.21-13.72-3-14,3.78a105.1,105.1,0,0,0,1.5,21.4l14.46-4-4.73-18c-2.09-7.91-15.77-6.6-14.74,2,.91,7.48,2.08,14.89,3.66,22.26s12.55,6.85,14.46,0a85.1,85.1,0,0,0,3-28.17h-15L498.86,182c.88,9.43,15.22,9.81,15,0a71.57,71.57,0,0,0-7.48-30.24c-3.06-6.22-11.77-3.84-13.71,1.79a77.28,77.28,0,0,0-4.21,26.24l14.73-2-7-22.83c-2.5-8.11-14.45-6.54-14.73,2a139.19,139.19,0,0,0,1.35,23.35c1.14,8.42,15,6.34,14.73-2a85.73,85.73,0,0,0-3-20.27c-2.2-7.95-15.22-6.66-14.73,2l1,17.78h15a66.79,66.79,0,0,0-4.58-21.2c-3.22-8-13.71-6.57-14.73,2a230.35,230.35,0,0,1-4.32,24.31h14.46l-8-28.7c-2.3-8.28-14.42-6.4-14.73,2a209.71,209.71,0,0,0,.67,26.29h15A63.82,63.82,0,0,0,471.9,158c-2.92-5.23-12.65-4.74-13.71,1.8a116.3,116.3,0,0,0-1.63,20.07l14.73-2-3.59-15.75c-.9-3.94-5.45-6.29-9.23-5.24-4.29,1.2-5.84,5.19-5.23,9.23a124,124,0,0,1,1.23,17.75h15a79.76,79.76,0,0,0-4.35-22.22c-2.39-6.74-12.38-7.5-14.47,0L448.07,171l14.73,2a106.84,106.84,0,0,0-.32-19.67l-14.73,2a110.81,110.81,0,0,1,6,23.44c1.2,8.46,14.84,6.28,14.73-2A131.86,131.86,0,0,0,464.65,147c-2.33-9.44-16.35-5.4-14.47,4a35.9,35.9,0,0,1-.64,16.55l12.54-3.31c-3.36-2.9-6.94-7.17-11.31-8.37-5-1.38-9.83,1.6-11.58,6.39-1.56,4.24-1.23,9.5-1.11,14a113,113,0,0,0,1.9,17.11c.66,3.66,4.84,5.83,8.23,5.37,4-.54,6-3.6,6.5-7.37a102.78,102.78,0,0,0-1-30.27l-14.47,4a63.76,63.76,0,0,1,5,21.54l14-3.79A125,125,0,0,0,447.77,168c-3.87-4.79-10.8-1.4-12.53,3.31a89.63,89.63,0,0,0-5.37,27.82h15l-.19-23.31-14,3.78a49,49,0,0,1,4.6,16.27l14.73-2a112.33,112.33,0,0,0-9.73-29.7c-3.5-7.26-13.45-3-14,3.78L424.87,187l14.73-2-7.2-20.89c-3.13-9.07-16.75-5.49-14.47,4l3.89,16.13,14.46-4a48.59,48.59,0,0,0-9.78-18.68c-4.07-5-13.23-.93-12.81,5.31a76,76,0,0,1-2,23.61c-2.31,9.37,12.15,13.37,14.46,4a89.65,89.65,0,0,0,2.5-27.59l-12.8,5.3a31.24,31.24,0,0,1,5.93,12.06c2.46,9.34,16.72,5.4,14.46-4l-3.88-16.13-14.47,4L425.14,189a7.54,7.54,0,0,0,14.73-2L441.34,168l-14,3.79a98.53,98.53,0,0,1,8.22,26.12c1.43,8.24,15.57,6.44,14.73-2A69.88,69.88,0,0,0,443.66,172c-3.3-6.88-14-3.31-14,3.79l.19,23.31c.07,9.68,14.64,9.63,15,0a76.33,76.33,0,0,1,4.83-23.83l-12.54,3.31a97.85,97.85,0,0,1,8,11.74c3.67,6.19,14.33,3.83,14-3.78A75.52,75.52,0,0,0,453.69,161c-3.65-8.85-16.16-5.68-14.47,4a89.38,89.38,0,0,1,.49,26.28l14.73-2a85.62,85.62,0,0,1-1.32-12.17c-.09-2.25-.92-8.23.48-10.05l-4.48,3.45,1-.4h-4c1.39.38,4.15,3.68,5.3,4.68,4.15,3.59,11,2.45,12.54-3.31a53.24,53.24,0,0,0,.64-24.53l-14.47,4a112.28,112.28,0,0,1,3.28,25.74l14.73-2a110.81,110.81,0,0,0-6-23.44c-1.32-3.53-4.32-5.9-8.23-5.37-3.36.45-6.91,3.65-6.5,7.36A106.84,106.84,0,0,1,447.8,173c-.66,8.58,12.51,10,14.73,2l2.59-9.32H450.65a65.2,65.2,0,0,1,3.82,18.24c.55,9.57,15,9.74,15,0a150.8,150.8,0,0,0-1.77-21.74l-14.46,4,3.59,15.75c1.89,8.29,14.82,6.41,14.73-2a94.14,94.14,0,0,1,1.09-16.09L459,165.57a45.38,45.38,0,0,1,5.61,16.89c.45,4,3.12,7.5,7.5,7.5,3.78,0,7.85-3.44,7.5-7.5a209.71,209.71,0,0,1-.67-26.29l-14.73,2,8,28.7c1.92,6.92,12.77,7.35,14.46,0a266,266,0,0,0,4.86-28.3l-14.73,2a54.17,54.17,0,0,1,4,17.21c.57,9.59,15.55,9.67,15,0l-1-17.78L480,162a68.63,68.63,0,0,1,2.49,16.29l14.74-2a116.13,116.13,0,0,1-.82-19.37l-14.74,2,7,22.84c2.44,7.93,14.83,6.68,14.74-2a64.67,64.67,0,0,1,3.67-22.26l-13.71,1.8A53.69,53.69,0,0,1,498.86,182h15l-1.63-17.47c-.88-9.47-15.61-9.74-15,0a72,72,0,0,1-2.48,24.18h14.46c-1.29-6-2.37-12.13-3.12-18.27l-14.73,2,4.74,18c2.5,9.51,16,5.35,14.46-4a86,86,0,0,1-1-17.41l-14,3.79a132.09,132.09,0,0,1,8.29,25.05c2,8.69,14.08,6,14.73-2l2.44-29.88-12.81,5.31c5.53,7.08,6.24,17.11,7,25.69l14.73-2-4.59-27.59-14.46,4,4.51,16.57c2.21,8.1,14.86,6.56,14.74-2l-.43-29.35-14.73,2a109.11,109.11,0,0,1,6.66,27.86l14.73-2A100.25,100.25,0,0,1,532.75,158l-14,3.78a63.86,63.86,0,0,1,6.47,24.1l14.74-2a85.14,85.14,0,0,1-.82-26.13l-14,3.79a56.48,56.48,0,0,1,9.27,29.42l14.73-2L544.46,161,530,165a67.75,67.75,0,0,1,5,17.76c.5,4,3.09,7.5,7.5,7.5,3.8,0,7.84-3.44,7.5-7.5a54.43,54.43,0,0,1,1.71-19.39L538,165.14a49.94,49.94,0,0,1,7.29,32.64l14.73-2-7.52-24.31c-2.86-9.26-16.48-5.44-14.46,4a41.09,41.09,0,0,1-1,20.65h14.46L544,156.46l-14.46,4a112.11,112.11,0,0,1,2.87,41.87h15A162,162,0,0,1,550,175.49c1.74-9.44-12.71-13.48-14.46-4Z" transform="translate(-17.62 -23.61)"/><path class="cls-4" d="M415.54,198.78a72,72,0,0,0,0,16.41l14.73-2a18.31,18.31,0,0,1,2.86-14.45L419.41,197c.64,3.54-.92,7.35-1.45,10.84a40,40,0,0,0,.44,13.14c1.56,8.91,3.57,17.73,5.07,26.66,3,17.9,5.13,35.92,6.47,54,.27,3.7,3.23,8,7.5,7.5a1238.15,1238.15,0,0,0,138.9-23.17c3-.67,5.79-4.1,5.51-7.23-1.36-15.5-7.27-30.11-9-45.61-1.66-15.11-2.51-30.52-8.2-44.8-1.26-3.15-3.66-5.46-7.23-5.5-8.26-.11-15.4,3.64-21.42,9.06a100.21,100.21,0,0,0-7.79,8.43c-2.12,2.44-4.42,5.85-7.44,7.12l3.79-1-1.15,0,3.79,1c-1.28-.56-3.13-5.7-4.91-7.24-4.93-4.28-12.52-1.42-12.8,5.3a48,48,0,0,0,.8,10.22c1.34,7.75,12.41,6.49,14.47,0L530.7,197H516.23l7.39,22.23c2.29,6.91,12.35,7.34,14.46,0a55.67,55.67,0,0,0,2.16-18c-.44-9.64-14.57-9.66-15,0s-.46,19.34-.09,29,14.76,9.68,15,0a101.53,101.53,0,0,0-8.53-42.86c-2.46-5.77-12.7-4.33-13.7,1.79a60.73,60.73,0,0,0,1.93,29.2c2.21,6.73,12.63,7.53,14.47,0l4.07-16.67H523.92l6.78,17.12c3.13,7.92,13.89,6.66,14.73-2l1.93-20.05-14.73,2L542.44,235c2.09,7.7,11.91,6.51,14.47,0,3.44-8.75,1.77-18.09-.2-27-1.88-8.45-14.52-6.27-14.73,2a187.77,187.77,0,0,0,.66,21.48c.84,9.59,14.3,9.71,15,0a126.14,126.14,0,0,0,0-17.28l-14.73,2,4.4,32c1.27,9.23,1.77,19,7.07,27,2.81,4.23,10.47,5.49,13,0l2.57-5.67H557l3,5.16,13-7.57c-5.46-8.17-15.93-7.81-21.66-.26L565,268.65l-6.1-20.15c-2.07-6.82-12.72-7.45-14.47,0a71.86,71.86,0,0,0-1.87,20.77h15a133.47,133.47,0,0,0-4.85-27.42c-2.45-8.41-14.11-6.28-14.74,2a87.24,87.24,0,0,0,.45,17.55c.52,4,3.08,7.5,7.5,7.5a7.59,7.59,0,0,0,7.5-7.5,63.11,63.11,0,0,0-7.89-30.06c-2.87-5.25-12.7-4.74-13.7,1.79a138.18,138.18,0,0,0-1.74,23.69c.18,9.74,14.33,9.55,15,0a44.13,44.13,0,0,0-4.66-22.66c-2.79-5.76-12.35-4.3-13.71,1.79L523,252.55h14.46a175.52,175.52,0,0,0-10.2-31.61c-2.41-5.72-12.8-4.37-13.7,1.79a80.55,80.55,0,0,0,.44,27.05c1.52,8.2,15.74,6.43,14.73-2a172.68,172.68,0,0,0-7.81-35.16,7.54,7.54,0,0,0-14.73,2,62,62,0,0,0,2.37,22.29c2.41,8.25,14.35,6.42,14.74-2a70.64,70.64,0,0,0-8.29-36.4c-3.79-7.2-13.25-3-14,3.79a129.11,129.11,0,0,0,1.24,35.11c1.43,8.56,14.56,6.18,14.74-2a51,51,0,0,0-10.34-32.16c-3.67-4.77-12-5.07-13.71,1.79a57.48,57.48,0,0,0-.48,26.41c1.46,7,13.2,7.29,14.46,0,2-11.41-.09-22.95-7.08-32.36-3.58-4.83-12.05-5-13.71,1.79a29.18,29.18,0,0,0,2.78,21.42c2.83,5.22,12.79,4.75,13.71-1.79a49.3,49.3,0,0,0-5.11-30.79c-3.44-6.52-14.31-3.58-14,3.79a132.9,132.9,0,0,0,6.27,35.19c2.67,8.22,14.11,6.43,14.74-2a65.55,65.55,0,0,0-7.18-34.6c-3-5.95-12-4.1-13.71,1.8-1.65,5.61.62,10.76,5.46,13.85s11.27-1,11.29-6.48a43.39,43.39,0,0,0-2.65-15.39c-3.3-8.91-16.95-5.52-14.46,4a88,88,0,0,0,6.22,16.52c2.17,4.43,8.54,4.69,11.78,1.52a16.15,16.15,0,0,0,3.37-4.6l-8.47,3.44c5.57,1.68,12-1.58,13-7.57H494.7a8.37,8.37,0,0,1-.75,4.89l12.54-3.31c-5.25-4.1-12.92-6.92-18-1-4.31,5-6.17,11.56-6.57,18-.54,8.71,12.28,9.81,14.73,2A25.07,25.07,0,0,0,493,197.23c-3.53-4.67-12.2-5.16-13.71,1.79a104.14,104.14,0,0,0-2.4,24.83c.25,9.85,14,9.41,15,0a38.19,38.19,0,0,0-6.58-25.74,7.56,7.56,0,0,0-14,3.78,76.05,76.05,0,0,0,2.23,24.87c2,8,15.61,6.6,14.73-2a59.61,59.61,0,0,0-10.1-28.42c-4.42-6.39-13.16-3.64-14,3.78a66.76,66.76,0,0,0,2.1,25c2.28,8.32,14.36,6.36,14.73-2a192.6,192.6,0,0,1,1.82-19.77l-13.71,1.79A101.56,101.56,0,0,0,482,221.29c3.89,4,11.15,2.14,12.53-3.31a40.28,40.28,0,0,0-3.26-28.63c-2.88-5.71-12.31-4.35-13.71,1.79q8-.57,5.19-3.22c-.44-.48-.87-1-1.28-1.47a15.53,15.53,0,0,0-3.36-2.84,9,9,0,0,0-9.43.48c-6.25,4.5-1.67,10.29-3.45,16.11h14.46L473.15,183c-2-5.32-10.8-8.26-13.71-1.79a45.57,45.57,0,0,0-4.31,22.63l14.73-2a64.79,64.79,0,0,0-6.85-20c-3-5.76-12.09-4.28-13.71,1.79a117,117,0,0,0-3.78,24.76l14.74-2a56,56,0,0,0-6.14-13.08,7.56,7.56,0,0,0-14,3.79L439,220.12l14.73-2a98.75,98.75,0,0,0-7.05-19.4c-1.4-2.93-5.47-4.3-8.47-3.45-3.42,1-5.11,3.89-5.5,7.24a58.57,58.57,0,0,0,.93,18.58l14.46-4a39.75,39.75,0,0,0-8.18-14.07c-3.74-4.2-11.24-2-12.54,3.31a40.13,40.13,0,0,0,.84,22.82,7.54,7.54,0,0,0,14.73-2l.22-3.58-14.73,2A123.07,123.07,0,0,0,435,242c2.7,5.63,9.9,4,12.95,0a26.29,26.29,0,0,0,4.28-8.88l-13.71,1.79A78.07,78.07,0,0,1,444.33,249c2.07,6.74,12.8,7.53,14.47,0a48.18,48.18,0,0,0,.09-20.77l-14.46,4,5.49,13.49c2.21,5.42,7.9,7.18,12.53,3.31,7-5.85,9.32-14.56,7.94-23.32l-14.46,4a19.3,19.3,0,0,1,1.6,6.59l14.74-2a91.78,91.78,0,0,0-14.68-24.68c-2.84-3.42-10-2.72-11.78,1.52-4.56,10.69-2.85,23.13,6.28,31,2.8,2.39,8,3.37,10.61,0,5.45-6.92,9.26-14.55,10.58-23.32l-13.7,1.79c.48-.28.49.14,0,1.25l14.73-2a50.28,50.28,0,0,0-3.47-12.56c-3-7.23-14.86-7.21-14.73,2a57.17,57.17,0,0,0,5.57,23.69c3.15,6.78,14.32,3.39,14-3.79-.21-4.33-1.79-7.43-5.65-9.58-3.42-1.91-8.33-1-10.26,2.69a45.21,45.21,0,0,0-4.69,28.63c1.07,7.28,13.17,7,14.47,0,.91-5-.07-8.51-3.24-12.44-2.7-3.36-7.76-2.35-10.6,0a19.94,19.94,0,0,0-6.52,10.41l14.73,2c-1.22-9.82-6.45-21.34-18.42-19.8-10.2,1.31-13.94,13.26-7.55,20.71,3.41,4,11.78,2.2,12.54-3.31.88-6.44.14-12.43-3.82-17.79-3.35-4.53-9.71-5.09-12.95,0-4.33,6.8-6.32,16-.78,22.81,4.5,5.51,13,7.83,19.07,3.39l-10.26-10.26c-6.16,12.5,5.85,24.52,18.36,18.37,2.67-1.31,4.63-5.6,3.45-8.47-2.88-7-10.79-16.51-18.62-8.8-5.52,5.43-6.76,16.26-6.28,23.46.21,3.23,2.17,6.41,5.5,7.23,5.38,1.31,11.46-1.38,12.34-7.33.92-6.22-4.84-12-11-8.47-9.51,5.38-8.63,18.17-.45,24.27,3.66,2.73,8.84,4.73,13.38,3.21,5.33-1.77,8.09-8.63,4.7-13.35a7.9,7.9,0,0,0-8.47-3.45c-5.56,1.13-8.63,5.8-9,11.21L457,278c-3.71-2.4-5.8-6.07-10.8-6.12a10.32,10.32,0,0,0-10.11,7.45c-2.66,10.32,11.13,15.11,16.65,6.79,2.91-4.39-.85-12-6.48-11.28s-10,5.06-8.31,11c1.58,5.63,7.81,7.49,12.88,5.65L443.51,279l-2.23,2.64h10.6c-7.15-6-17.08-2-17.81,7.41-.34,4.29,3.72,7.17,7.5,7.5a32.13,32.13,0,0,0,24.92-9l-11.78-9.09A12.38,12.38,0,0,0,453,289.35a7.57,7.57,0,0,0,11,4.48,18.39,18.39,0,0,0,8.18-21.5c-1.18-3.49-5.3-6.85-9.23-5.24a17.51,17.51,0,0,0-7,4.51l12.54,7.3a38.87,38.87,0,0,0,1.79-15.36c-.43-5-4.43-8.34-9.49-7.24a14.51,14.51,0,0,0-11.28,11.54c-1.24,7.15,6.78,12.78,12.53,7.3a56.58,56.58,0,0,0,14.65-23.28l-14.46-4a18,18,0,0,0,.34,10.3c1.87,5.4,10.9,8.21,13.71,1.79l10.21-23.39-14-3.78L471,246.07l14.73-2a43.44,43.44,0,0,0-7.11-17.7c-2.53-3.69-8.41-5.43-11.78-1.52-6.12,7.1-8.25,15.15-6.91,24.37.84,5.73,9,7,12.54,3.31A188.31,188.31,0,0,0,487.31,235l-13.71-1.8A32.29,32.29,0,0,1,476,245.07c.05,7.64,10,9.93,14,3.78l4.83-7.47-13.71-1.79,2.94,8.49a7.57,7.57,0,0,0,14.47,0l4.87-13.67-14.73-2a91.77,91.77,0,0,0,3.29,16c2.48,8,14.74,6.66,14.74-2V232.25l-14.73,2a134.69,134.69,0,0,0,9.18,20.7c3.91,7.12,13.21,3.05,14-3.78a18.88,18.88,0,0,0-3.54-13.23c-5.72-7.82-16.94-1.28-12.95,7.57a57.24,57.24,0,0,0,8.19,12.82l5.31-12.8a43,43,0,0,1-11.72-1.64c-9.31-2.61-13.29,11.86-4,14.46a58.74,58.74,0,0,0,15.71,2.18c7,0,9.25-8,5.3-12.8a43.33,43.33,0,0,1-5.85-9.79l-12.95,7.57a6.75,6.75,0,0,1,1.49,5.66l14-3.79a112.69,112.69,0,0,1-7.67-17.12c-2.69-7.74-14.73-6.83-14.73,2V246.4l14.73-2a69.47,69.47,0,0,1-2.76-12c-1-8.25-11.75-10.37-14.73-2L484,244.1h14.47l-2.94-8.5a7.61,7.61,0,0,0-13.71-1.79L477,241.28l14,3.79a44.47,44.47,0,0,0-2.9-15.82c-2.45-6.36-9.7-7.09-13.7-1.79a157,157,0,0,1-12.55,14.47l12.54,3.31a12.53,12.53,0,0,1,3-9.77L465.62,234a33.66,33.66,0,0,1,5.6,14.11c.59,3.67,4.89,5.83,8.23,5.38,4-.54,6-3.6,6.5-7.37l1.6-13.28c.88-7.24-11.06-10.45-14-3.79l-10.22,23.39,13.71,1.79a2.21,2.21,0,0,1-.34-2.32c2.17-9.45-11.39-13.12-14.46-4a40.64,40.64,0,0,1-10.79,16.66l12.53,7.3c.38-2.16-.38-.8.8-1.06l-9.49-7.23a27.25,27.25,0,0,1-1.26,11.37c-2.27,7,7.55,12.83,12.54,7.3l.36-.65-9.23-5.24c.65,1.92.62,3.4-1.28,4.56l11,4.48.2.65c5.15-7.12-5.81-14.72-11.78-9.09-4.05,3.82-8.85,5.09-14.31,4.61l7.5,7.5.08-1-1,3.78-6.84.41c2.9,2.43,7.81,3.31,10.6,0l2.24-2.65c4.36-5.17.39-15.32-7.3-12.53a5.53,5.53,0,0,1-2.19.55h4l-1-.31,4.48,3.45-.44-.66,1,3.79,0-.82-1,3.78.38-.62-6.47,3.71.67-.08-6.48-11.29-.42.64,4.48-3.44-.74.22h4l2.61,2.08.75,5.78L448.86,286l-3.79,1c-1.24.13.5,1,1.06,1.48a23.27,23.27,0,0,0,3.28,2.47c5.06,3.27,10.95-1.11,11.28-6.48l.08-1.17-1,3.79-1.09.64-8.47-3.45.5.69-1-3.78-.11.92,2.2-5.31,1.36-.89h4a17.8,17.8,0,0,1-3.46-1.26c-.25-.09-.31.73-.56.88l-11-8.47,3.22-2.88h4l-1.09-.27,5.51,7.24a26.93,26.93,0,0,1,.37-7.66,24.44,24.44,0,0,1,.89-3.11,9.38,9.38,0,0,1,.81-1.93q1-1.77-.8.47l-5.78.76c-2.18-.43-1-1.38-.06.8l3.45-8.47c1.59-.16,2.31.56,2.16,2.15,3-6-3.66-15.09-10.26-10.26-.13.09.17.67.1,0-.21-2.14,1-4,2.13-5.71H433.73c1.33,1.8,2.63,3.87,2.31,6.23l12.53-3.3c1.66,2.47,1.19,4.06-1.41,4.74a1.6,1.6,0,0,1,.5.62c-.12,1,1.13,3.17,1.27,4.33,1,7.85,12.33,10.82,14.73,2a6.4,6.4,0,0,1,2.66-3.8h-10.6l-.63-2.15h14.47a27.9,27.9,0,0,1,3.17-17.07l-10.26,2.69-.82-.91-1-3.78.07,1.32,14-3.78a39.12,39.12,0,0,1-3.52-16.12l-14.73,2a50.75,50.75,0,0,1,3.47,12.55c1.25,8.83,14.18,5.91,14.73-2a16,16,0,0,0-2.08-8.82c-2.8-5.33-12.74-4.68-13.71,1.79a34.82,34.82,0,0,1-6.73,16.7H462.7c-3.55-3-5.93-8.11-3.94-12.78L447,220.21a68.62,68.62,0,0,1,10.82,18.06c1.41,3.51,4.25,5.91,8.23,5.37,3.52-.47,6.68-3.62,6.5-7.36a31.67,31.67,0,0,0-2.14-10.58c-3.61-9-16-5.61-14.46,4,.56,3.59-1.49,6.56-4.08,8.72l12.53,3.31-5.49-13.49c-3.57-8.79-16.48-5.68-14.46,4a29.82,29.82,0,0,1-.1,12.79H458.8a100.41,100.41,0,0,0-7.34-17.64c-3.1-5.8-12-4.23-13.71,1.79a15.21,15.21,0,0,1-2.77,5.3h12.95a96.5,96.5,0,0,1-5-12.86c-2.57-8.22-14.2-6.43-14.73,2l-.22,3.58,14.73-2a25.49,25.49,0,0,1-.83-14.84l-12.54,3.31a21.34,21.34,0,0,1,4.33,7.44c3.11,9.18,16.36,5.49,14.46-4a46.14,46.14,0,0,1-.39-14.6l-14,3.78a80.47,80.47,0,0,1,5.54,15.82c2.07,8.48,14.33,6.23,14.73-2L455.15,197l-14,3.78a40.35,40.35,0,0,1,4.62,9.5c2.64,8.07,14.34,6.57,14.73-2a97.88,97.88,0,0,1,3.24-20.77l-13.71,1.79a52.39,52.39,0,0,1,5.34,16.45c1.34,8.29,15.39,6.42,14.74-2a30.21,30.21,0,0,1,2.26-15.06l-13.71-1.79,6.5,17.24c2.54,6.76,12.17,7.46,14.46,0a23.22,23.22,0,0,0,1.13-7.21c-.11-1.26-.26-2.51-.45-3.76q-.58-4.53-1.84,2.07l-5.3,2.2,1.1.11-3.79-1c1.35,1,2.32,2.79,3.73,3.87a11.75,11.75,0,0,0,7.19,2.64,10.5,10.5,0,0,0,10.57-8l-13.71,1.79A24,24,0,0,1,480,214l12.53-3.31a82.38,82.38,0,0,1-10.43-13.11c-3.1-4.85-12.69-5-13.71,1.79a230.79,230.79,0,0,0-2.35,23.76l14.73-2a55.13,55.13,0,0,1-1.56-21l-14,3.79a44.26,44.26,0,0,1,8.05,20.85l14.74-2a63.05,63.05,0,0,1-1.7-20.89l-14,3.79a25.53,25.53,0,0,1,4.53,18.17h15A86.29,86.29,0,0,1,493.76,203l-13.71,1.79c2.63,3.48,3.47,6.8,2.16,11l14.73,2a15.53,15.53,0,0,1,3.11-8.63l-5.3,2.2a2.87,2.87,0,0,1,1.13,0c4.63,3.61,10.4,2.35,12.54-3.31a22.87,22.87,0,0,0,.75-12.85c-1.38-7.06-13.26-7.27-14.47,0l2.5-2.61h4l-1-.3c-2.94-.89-7.09.53-8.47,3.45a2.31,2.31,0,0,1-1,1.56l11.78,1.52a68.52,68.52,0,0,1-4.71-12.93l-14.46,4a31.44,31.44,0,0,1,2.11,11.41l11.28-6.48,1.43,3.09-13.71,1.8a50.58,50.58,0,0,1,5.14,27l14.73-2a117.2,117.2,0,0,1-5.74-31.2l-14,3.78a31.88,31.88,0,0,1,3.6,19.23l13.71-1.79a13.13,13.13,0,0,1-1.27-9.87l-13.7,1.8c4.5,6.06,6.88,13.22,5.57,20.8h14.46a40.27,40.27,0,0,1,.49-18.43l-13.71,1.79A38.05,38.05,0,0,1,502,235.41l14.73-2A114.63,114.63,0,0,1,516,202.3l-14,3.78a55.5,55.5,0,0,1,6.24,28.83l14.73-2a49.83,49.83,0,0,1-1.84-18.3l-14.74,2a153.88,153.88,0,0,1,7.28,31.18l14.73-2a58.68,58.68,0,0,1-.44-19.07l-13.71,1.79a156.84,156.84,0,0,1,8.69,28c1.55,7.18,12.88,7.13,14.46,0l3.7-16.61-13.71,1.79a29,29,0,0,1,2.61,15.09h15a115,115,0,0,1,1.2-19.71l-13.71,1.8a46.82,46.82,0,0,1,5.84,22.49h15a87.26,87.26,0,0,1-.45-17.55l-14.73,2a113,113,0,0,1,4.32,23.43c.71,9.54,15.59,9.68,15,0a57.32,57.32,0,0,1,1.34-16.78H544.39l6.11,20.15c2,6.68,9.92,6.79,13.7,1.79-1.31,1.9-2.72,2-4.25.26,5.32,8,17.81.89,13-7.57l-3-5.16c-2.59-4.52-10.57-5.26-13,0l-2.57,5.67h13c-4.74-7.15-4.69-17.14-5.82-25.39l-4.13-30.05c-1.15-8.33-15.29-6.4-14.74,2a124.57,124.57,0,0,1,0,17.28h15A187.77,187.77,0,0,1,557,210l-14.73,2c1.43,6.46,2.69,12.65.19,19h14.47l-9.82-36.27c-2.33-8.61-14-6.08-14.73,2l-1.93,20.05,14.73-2-6.77-17.12c-2.52-6.36-12.55-7.84-14.47,0l-4.07,16.68h14.47a44.3,44.3,0,0,1-1.94-21.24l-13.71,1.8a84,84,0,0,1,6.48,35.29h15q-.55-14.5.09-29h-15a42.28,42.28,0,0,1-1.62,14h14.46L530.7,193a7.57,7.57,0,0,0-14.47,0l-5.92,18.71h14.47a28.86,28.86,0,0,1-.27-6.23l-12.8,5.3c1.3,1.13,1.6,3.18,2.51,4.67a12.89,12.89,0,0,0,5.43,4.92c5.47,2.58,10.22-.26,14.17-4.05,6.75-6.47,13-18.63,23.62-18.49l-7.24-5.51c5.45,13.65,6.19,28.13,7.87,42.56A160.24,160.24,0,0,0,561.68,256c1.9,7.53,4.49,15,5.17,22.75l5.51-7.24a1202.63,1202.63,0,0,1-134.92,22.64l7.5,7.5q-2.08-28.17-6.68-56.09c-1.48-9-3.35-17.81-5-26.72s2.24-17,.65-25.83c-1.21-6.76-10.49-6.77-13.7-1.79a33.5,33.5,0,0,0-4.37,26c1.81,8.08,15.68,6.5,14.73-2a72.62,72.62,0,0,1,0-16.41c.45-4-3.78-7.5-7.5-7.5-4.44,0-7.05,3.46-7.5,7.5Z" transform="translate(-17.62 -23.61)"/><path class="cls-5" d="M520,250.49l-12.6,3.27c-1.27.26-2.54.51-3.82.74a8.72,8.72,0,0,0-8.08-9.68c-5.44-.44-11.82,2.28-17,3.83-6.11,1.84-12.14,3.92-18.11,6.18-8.94,3.39-5.22,16.85,4.23,14.39L472,267.3c-.47,4.6,3.46,9.9,9.47,8.66q7.77-1.6,15.58-3a7.23,7.23,0,0,0,6.48,1.19l6.57-2a30.23,30.23,0,0,0,6.59-5.17c2.53-.63,5.05-1.31,7.54-2.1C533.43,262,529.34,248.07,520,250.49Z" transform="translate(-17.62 -23.61)"/><path class="cls-4" d="M470,283.63a21.74,21.74,0,0,0,14.69-6.21c6.44-6.17-1.72-15.36-9.09-11.78a167.7,167.7,0,0,1-30.8,11.24c-9.56,2.49-5.31,15.89,4,14.46A215.07,215.07,0,0,1,482.71,289l-7.5-7.5.38-1.57c-4.17,3.34-2,11.73,3.31,12.53a39,39,0,0,0,22.58-3c7.31-3.23,2.94-13.65-3.79-14a138.21,138.21,0,0,0-52,7.41c-7.63,2.64-6.9,15,2,14.73,33.84-1.13,65.78-13.25,99-18.34,8.36-1.29,6.38-15.12-2-14.74a49.46,49.46,0,0,1-16-1.77l4.49,11,3.41-5c3.14-4.57-1-11.65-6.48-11.29a60.44,60.44,0,0,0-15.26,2.88c-9.08,3-5.35,17.22,4,14.46l15.52-4.57c8.5-2.51,6.18-13.94-2-14.73a64.44,64.44,0,0,0-36.26,7.35c-7.16,3.74-3,13.32,3.79,14,4.72.46,8.81-2.14,11.19-6.08,2.9-4.81-.82-11.42-6.48-11.29a100.58,100.58,0,0,0-21.16,2.75L489.29,276c12.17-6.9,9-22.31.48-30.7-3.78-3.71-10.16-6.91-12-12.13-2.14-6.07,2.72-13.36,5.63-18.32L469.68,213q2.24,10.48,4.46,21c1,4.5,7.17,7.15,11,4.48A37.89,37.89,0,0,0,494,230H481l4.66,7.58c2.39,3.89,8.5,5.25,11.78,1.52s5.33-8.3,4.92-13.49c-.5-6.27-7.94-10.16-12.8-5.31a42.74,42.74,0,0,0-7,9.09l14,3.79-.7-9.59-14.73,2,3.45,11.59c1.77,5.93,10.6,7.67,13.71,1.79A102.08,102.08,0,0,0,507,216.5L496,221q-2.06-3.8-1.26-1.32c0-.46,0-.19.1.81a17.6,17.6,0,0,0,.66,4.66,10.69,10.69,0,0,0,5.05,6.72c8,4.26,16.92-4.48,22.48-9.28,7.31-6.32-3.33-16.89-10.61-10.61-2.38,2.06-6.14,5.78-9.33,6.34h4q3.6,5.13,2.72,2c.13.47.11.2-.05-.79a14.83,14.83,0,0,0-.64-4.27,11.35,11.35,0,0,0-5.52-7.23c-4.19-2.22-9.78-.37-11,4.49a84.94,84.94,0,0,1-7.22,18.85l13.71,1.79-3.46-11.59c-2.32-7.79-15.37-6.74-14.73,2l.7,9.59c.52,7.1,10.07,10.6,14,3.78a27.45,27.45,0,0,1,4.61-6.05l-12.8-5.3c.1,1.25.28,2-.53,2.88L498.6,230,494,222.41c-3.22-5.24-9.59-4.39-13,0a15.25,15.25,0,0,1-3.4,3.11l11,4.48-4.47-21c-1.37-6.45-10.58-7.12-13.7-1.79-6.18,10.53-11.88,23.73-4.7,35.27,3,4.85,7.5,8.05,11.7,11.76,1.35,1.2,7.67,6.82,4.28,8.74-7.52,4.27-2.39,15.66,5.78,13.71a81.52,81.52,0,0,1,17.18-2.22l-6.48-11.28,1.77-1.35,3.78,14a50.26,50.26,0,0,1,28.69-5.3l-2-14.73-15.52,4.57,4,14.46a44.34,44.34,0,0,1,11.27-2.34l-6.47-11.29-3.42,5c-2.79,4.06.1,9.79,4.49,11a63.37,63.37,0,0,0,20,2.3l-2-14.73c-31.87,4.88-62.59,16.73-95,17.81l2,14.74a126.48,126.48,0,0,1,48-6.88l-3.78-14a20.44,20.44,0,0,1-11,1.5l3.31,12.53a11.3,11.3,0,0,0,4-9,7.61,7.61,0,0,0-7.5-7.5,239.35,239.35,0,0,0-37.91,2.9l4,14.46a186.34,186.34,0,0,0,34.38-12.75l-9.09-11.78a5.67,5.67,0,0,1-4.08,1.82c-9.61.45-9.66,15.45,0,15Z" transform="translate(-17.62 -23.61)"/><path class="cls-3" d="M641.62,29.11s-64,24-78,27" transform="translate(-17.62 -23.61)"/><path class="cls-3" d="M375.12,86.61s-58,3-87,0" transform="translate(-17.62 -23.61)"/><path class="cls-3" d="M95.12,55.61s-65-20-73-25" transform="translate(-17.62 -23.61)"/><path class="cls-4" d="M528.08,79.72c-2.65-1.13-5.31-2.19-8-3.17v2.89l3.56.36-.36-2.74-2.18,1.32a1.51,1.51,0,0,0,.75,2.8,25.8,25.8,0,0,1,7.86,1l-.35-2.74a8.8,8.8,0,0,1-7.22,1.09v2.9a92.53,92.53,0,0,1,16.44-1.46,1.49,1.49,0,0,0,1.29-.74l4.65-8.39a1.52,1.52,0,0,0-1.69-2.2,33.62,33.62,0,0,0-10.33,5,1.52,1.52,0,0,0,.76,2.8l9.38.42-.4-2.94-9,1.89,1.7.69c-1.24-1.66-2.28-2.32-4.4-2.07a1.5,1.5,0,0,0,0,3l1,.35L530.85,78,530,80.43a1.51,1.51,0,0,0,1.05,1.84c3.66.77,20.49-.41,16.59-7.49a1.49,1.49,0,0,0-1.29-.74h-.8a1.5,1.5,0,0,0,0,3c-2.15,0-4.22,1.79-6.27,2.31a15.82,15.82,0,0,1-7.43,0l1,1.85.82-2.43a1.53,1.53,0,0,0-.69-1.7,5.1,5.1,0,0,0-2.55-.76v3l1.8.59a1.6,1.6,0,0,0,1.7.69l9-1.9c1.72-.36,1.23-2.87-.4-3l-9.38-.42.76,2.79a31.52,31.52,0,0,1,9.6-4.65l-1.69-2.2c-1,1.73-2.19,5.49-3.72,6.71s-3.31,1-5.27,1.06a96.19,96.19,0,0,0-11.6,1.43c-1.48.27-1.38,2.56,0,2.9a12,12,0,0,0,9.53-1.4,1.52,1.52,0,0,0-.36-2.74,28.09,28.09,0,0,0-8.66-1.07l.76,2.79,2.18-1.32a1.52,1.52,0,0,0-.35-2.74,7.33,7.33,0,0,0-5.15-.36c-1.54.37-1.31,2.42,0,2.89,2.46.89,4.89,1.84,7.31,2.87,1.75.75,3.28-1.83,1.51-2.59Z" transform="translate(-17.62 -23.61)"/><path class="cls-4" d="M537.89,74.4a7.06,7.06,0,0,0-.55,2.06,1.51,1.51,0,0,0,2.75,1.16l.57-.75c1.07-1.42-1.16-2.9-2.36-1.82a59,59,0,0,1-7.74,5.9l2.05,2,.81-1.23c1.09-1.65-1.45-3-2.59-1.51l-1,1.36,2.59,1.52a6.35,6.35,0,0,0,1-1.91c.56-1.45-1.51-2.45-2.51-1.46l-2.08,2.07,2.35,1.82c1.34-2.74,1.07-4.68-.15-7.4a1.5,1.5,0,0,0-2-.54c-.94.64-1.07,1.09-2.17,1-1.67-.2-2.06,2.65-.4,3a12.58,12.58,0,0,0,4.37.06c1.56-.24,1.28-2.49,0-2.9a43.1,43.1,0,0,0-9.43-1.62l.4,3,1.21-.47c1.23-.47,1.61-2.6,0-2.89-1.89-.34-5.38-1.1-6.43,1.1a1.51,1.51,0,0,0,.23,1.81c.87.76,2.52.78,3.17,1.33s.28.65.69,1.81A1.58,1.58,0,0,0,522,81.9l.49.06a1.44,1.44,0,0,0,1.29-.74l.18-.37a1.52,1.52,0,0,0-1.3-2.26,4.52,4.52,0,0,0-3,.64l1.82,2.35a4,4,0,0,0,1.06-1.49,1.52,1.52,0,0,0-1.29-2.25l-.39-.06c-1.81-.24-1.84,2.39-.4,3a7.39,7.39,0,0,0,2.7.62c1.91.21,1.9-2.79,0-3l-1.91-.51-.39,2.94.39.06L520,78.58l-.59.88a1.51,1.51,0,0,0,1.82,2.36l1.45-.23-1.29-2.26.63-.43,1.45,1.1c-.27-.76.23-1.6-.28-2.4-.93-1.44-3.17-1-4.35-2.06l.24,1.82a28.15,28.15,0,0,1,3,.28V74.75l-1.21.47a1.5,1.5,0,0,0,.4,2.94,39.43,39.43,0,0,1,8.63,1.52v-2.9l-2.78,0-.39,2.94,1.71.21a1.44,1.44,0,0,0,1.29-.74l.68-.83-2.05-.54.15,4.38A1.51,1.51,0,0,0,530.91,84L533,81.89l-2.5-1.46-.7,1.19c-1.15,1.57,1.44,3,2.59,1.52l1-1.37-2.59-1.51L530,81.49a1.51,1.51,0,0,0,2.05,2.05,63.06,63.06,0,0,0,8.35-6.37l-2.35-1.82-.57.76,2.74,1.15a6.73,6.73,0,0,1,.54-2.07c.63-1.82-2.26-2.61-2.89-.79Z" transform="translate(-17.62 -23.61)"/></svg>